<svg width="186" height="217" viewBox="0 0 186 217" fill="none" xmlns="http://www.w3.org/2000/svg">
<path d="M49.3132 167.161C47.694 164.798 44.4767 164.125 42.0242 165.61C31.7902 171.859 22.2879 178.726 13.4956 186.573C9.14985 190.472 5.1445 194.755 0.898451 198.855C-0.911029 200.575 -2.71078 202.366 -4.82053 203.732C-8.57579 206.185 -13.1032 205.908 -15.9598 203.426C-18.8261 200.874 -19.8319 196.452 -17.9814 192.428C-17.0459 190.361 -15.618 188.478 -14.1707 186.736C-2.54016 172.396 12.1428 161.695 27.3862 151.672C28.4058 150.994 29.4255 150.316 30.5059 149.557C32.1817 148.43 32.4646 146.057 31.1432 144.551C28.2501 141.284 25.4372 138.079 22.4638 134.752C20.892 132.992 18.0626 133.308 16.9459 135.364C14.5194 139.897 12.2958 144.08 10.1026 148.222C9.58499 149.155 9.25819 150.169 8.77095 151.062C6.4574 155.113 3.5917 156.726 0.20424 155.862C-3.59528 154.874 -6.48607 151.105 -5.62985 146.643C-4.72145 141.778 -2.93792 137.01 -1.13493 132.382C0.270766 128.778 2.01801 125.308 3.80655 121.615C4.90375 119.418 4.3625 116.8 2.51849 115.149C-1.74086 111.352 -5.8191 107.565 -10.1708 104.14C-21.2104 95.4542 -32.493 87.0891 -43.5934 78.4835C-47.0528 75.7975 -50.3397 72.8005 -53.4553 69.7442C-56.651 66.6271 -58.2231 62.7849 -56.5818 58.2871C-54.8687 53.5282 -50.9445 51.5186 -46.2445 51.4853C-41.011 51.4148 -35.7385 51.6263 -30.6094 52.3601C-10.0831 55.3658 10.4018 58.5927 30.8771 61.749C38.0676 62.8468 37.7965 62.7044 41.8308 56.5504C51.6333 41.4554 61.5561 26.4516 71.6795 11.5999C73.8582 8.393 76.951 5.56364 80.1715 3.39901C86.9054 -1.14989 94.5871 0.383371 98.5795 7.4489C101.064 11.9201 102.862 17.1319 103.482 22.1457C105.217 36.271 106.137 50.472 107.349 64.7049C107.424 65.7718 107.53 66.7986 107.575 67.9055C107.735 70.3613 109.597 72.4043 112.021 72.7905C113.117 72.9276 114.223 73.1352 115.319 73.2723C133.151 75.7494 151.013 78.1864 168.824 80.7741C172.304 81.267 175.893 82.0321 179.107 83.4592C186.297 86.6396 187.932 96.3979 182.01 101.626C179.231 104.125 175.529 105.924 171.94 107.242C159.571 111.808 147.042 116.002 134.612 120.397C127.526 122.912 120.528 125.809 113.441 128.324C110.054 129.542 108.475 131.374 108.427 135.187C108.178 158.345 104.489 181.041 99.6328 203.609C98.7681 207.75 98.0832 212.152 94.3669 214.887C90.9738 217.363 86.3128 217.678 82.7404 215.474C79.3187 213.322 77.8268 209.54 75.6581 206.319C66.8931 193.3 58.1281 180.281 49.2622 167.312L49.3132 167.161ZM47.4573 133.698C49.1895 135.58 51.9546 136.099 54.2443 134.995C65.4107 129.516 76.3048 124.146 87.1491 118.675C88.1578 118.178 89.1019 116.433 89.1175 115.246C89.1614 108.022 89.034 100.858 88.9077 93.4428C88.8599 90.7563 86.8578 88.4811 84.1826 88.0934C72.6871 86.508 61.6036 85.0457 50.5006 83.4424C47.6042 83.0132 46.2383 84.5648 45.011 86.6C41.4811 92.5055 37.9111 98.3805 34.4214 104.316C33.2852 106.231 32.2196 108.137 31.1843 110.002C29.9765 112.178 30.3063 114.826 31.9583 116.647C37.3751 122.584 42.4514 128.136 47.4475 133.628L47.4573 133.698ZM88.172 65.7514C87.3791 54.5492 86.6337 43.9509 85.8677 33.4632C85.6704 30.474 81.8113 29.3149 80.0286 31.7494C73.0511 41.0355 67.1068 51.0419 60.7882 61.4586C59.5913 63.4538 60.8168 66.0867 63.1201 66.3817C70.251 67.3081 77.1304 68.2331 84.4825 69.2011C86.5342 69.4946 88.3133 67.8146 88.172 65.7514ZM80.7744 177.574C81.9244 179.14 84.3928 178.551 84.7037 176.641C86.4317 166.53 87.7976 156.397 88.2408 145.564C88.3449 142.677 85.2745 140.728 82.6616 142.091C77.1428 145.037 71.8866 147.804 66.5295 150.62C64.5218 151.685 63.9157 154.317 65.2456 156.146C70.5751 163.531 75.6747 170.553 80.7343 177.544L80.7744 177.574ZM24.3432 79.4485C11.3708 77.3113 -1.15911 75.2571 -13.6489 73.2333C-15.6301 72.9301 -16.7187 75.4491 -15.1142 76.6657L13.7671 98.5633C14.6897 99.2628 15.9792 98.9785 16.5977 97.9961C19.5297 92.9625 22.5225 87.8488 25.7486 82.344C26.4485 81.1709 25.741 79.6879 24.3833 79.4789L24.3432 79.4485ZM108.503 95.427C108.548 98.6165 108.605 101.625 108.661 104.634C108.71 107.069 111.137 108.783 113.466 107.961C122.468 104.753 131.228 101.615 139.928 98.5559C141.641 97.9622 141.371 95.4856 139.541 95.2336C130.73 94.1064 121.879 92.9487 112.485 91.7577C110.293 91.4835 108.372 93.1827 108.423 95.3662L108.503 95.427Z" fill="#F6DE64" fill-opacity="0.4"/>
</svg>
