<svg width="192" height="255" viewBox="0 0 192 255" fill="none" xmlns="http://www.w3.org/2000/svg">
<g clip-path="url(#clip0_2800_12147)">
<path d="M148.875 104.246C147.694 104.828 147.537 106.319 148.512 107.287C148.755 107.529 148.987 107.746 149.211 107.98C157.162 115.972 158.749 129.435 148.38 137.168C143.938 140.483 138.83 142.695 133.188 143.979C130.407 144.607 127.571 145.092 124.775 145.592C123.14 145.887 121.993 147.109 121.927 148.657C121.82 151.078 121.76 153.497 121.398 155.872C120.86 159.447 119.373 162.711 117.255 165.674C111.927 173.188 100.779 174.984 91.3987 170.118C80.0218 164.204 74.5156 154.899 72.8003 143.687C72.685 142.912 71.7738 142.455 71.051 142.762C70.8836 142.834 70.7162 142.907 70.5417 142.996C66.3645 145.007 61.8229 146.18 57.0181 146.659C42.5843 148.087 31.1028 137.989 31.9502 124.624C32.268 119.585 34.3122 115.137 36.6891 110.827C37.1364 110.022 36.6723 108.982 35.7131 108.586C35.3607 108.44 35.0083 108.294 34.6684 108.174C30.518 106.681 27.2119 104.143 24.7395 100.698C19.5668 93.47 21.797 84.191 29.4019 80.2641C37.6514 75.9975 46.6515 76.1819 55.9839 80.6647C56.1405 80.7294 56.29 80.8114 56.4591 80.9014C57.9557 81.6613 59.7413 81.3893 60.7459 80.2895C64.4756 76.2558 68.6661 72.7155 73.771 70.1793C75.8774 69.1308 78.1191 68.1989 80.4691 67.6147C89.1305 65.4574 97.7249 68.5647 103.709 75.8249L103.729 75.833C104.652 76.9821 106.368 77.267 107.502 76.4632C108.67 75.633 109.824 74.8374 110.914 73.9748C122.931 64.6399 137.061 59.0665 152.913 56.4264C160.716 55.1264 168.463 53.9044 176.591 54.092C193.739 54.4721 208.861 60.4183 222.557 70.7038C231.891 77.7326 238.445 86.5004 243.167 96.3701C247.275 104.955 250.013 113.803 251.72 122.871C253.069 130.034 253.575 137.131 252.437 144.154C252.241 145.406 252.415 146.205 253.76 146.943C257.458 148.976 259.45 152.143 260.822 155.699C262.794 160.857 262.639 165.944 261.53 170.959C261.232 172.29 260.875 173.597 260.502 174.998C260.176 176.177 261.202 177.409 262.548 177.48L262.706 177.485C268.696 177.799 274.629 178.473 280.436 180.671C290.639 184.544 295.007 195.439 289.525 203.879C288.437 205.57 286.545 206.93 284.683 207.998C279.766 210.855 274.079 211.696 268.055 211.408C267.54 211.377 266.999 211.356 266.458 211.334C265.264 211.285 264.434 212.295 264.798 213.355C267.663 221.729 266.259 233.612 253.831 239.061C249.097 241.144 244.237 241.257 239.044 239.514C231.07 236.846 225.015 231.919 220.462 225.412C218.473 222.57 216.86 219.541 215.099 216.591C214.358 215.335 212.763 214.757 211.408 215.207C211.355 215.225 211.301 215.244 211.228 215.254C206.939 216.592 202.741 218.21 198.314 219.108C192.204 220.36 185.993 219.47 179.878 217.185C176.422 215.898 173.833 213.677 171.919 210.765C167.908 204.664 165.838 194.477 172.81 187.036C174.899 184.809 177.369 182.88 179.665 180.819C179.665 180.819 179.665 180.819 179.672 180.802C180.473 180.083 180.306 178.822 179.281 178.197C178.769 177.884 178.276 177.579 177.79 177.257C170.614 172.494 168.666 163.508 173.376 157.435C179.764 149.188 192.974 146.062 204.22 150.185C204.978 150.457 205.722 150.765 206.517 151.114C207.692 151.599 208.915 150.913 208.903 149.777C208.888 148.094 208.87 146.531 208.765 144.953C208.368 138.426 207.165 131.909 204.945 125.579C201.582 115.968 195.798 107.558 186.498 101.554C177.621 95.8046 168.345 94.6782 159.2 99.0595C155.741 100.72 152.325 102.44 148.789 104.231L148.875 104.246ZM44.0567 104.701C46.3008 105.871 46.8198 107.277 45.9127 109.306C44.2748 112.992 42.3752 116.591 40.9402 120.34C39.2272 124.763 39.0093 129.339 41.9636 133.893C43.9645 136.982 46.7207 139.131 50.6207 139.51C52.5841 139.696 54.5957 139.598 56.5378 139.39C61.5438 138.813 65.9221 136.926 70.1883 134.811C71.3689 134.228 72.5369 133.62 73.8099 133.257C77.4686 132.224 80.7499 134.489 80.8601 138.049C80.8757 138.843 80.74 139.616 80.7164 140.394C80.4959 149.857 84.7532 157.635 93.5884 163.266C99.9732 167.339 108.24 166.634 111.685 159.352C113.309 155.923 114.065 152.317 113.984 148.465C113.942 146.347 114.237 144.247 114.354 142.134C114.458 140.44 115.571 139.466 117.184 139.002C118.377 138.666 119.67 138.534 120.925 138.325C124.758 137.647 128.646 137.113 132.418 136.248C136.23 135.399 139.597 133.74 142.669 131.576C150.027 126.416 148.535 117.215 143.133 112.094C139.858 108.983 136.055 106.704 131.774 105.138C124.469 102.462 117.076 101.992 109.651 102.6C108.538 102.686 107.449 102.882 106.326 102.882C103.597 102.886 101.816 101.261 101.765 98.7759C101.759 97.9046 101.903 97.0554 101.963 96.1911C102.232 91.6566 101.96 87.1005 99.5525 82.8332C95.4907 75.5797 88.2781 71.5689 79.5961 75.7174C78.9996 75.996 78.4227 76.2828 77.8386 76.5869C73.8073 78.7991 70.4164 81.6801 67.4045 84.9197C66.3323 86.0723 65.3312 87.2745 64.1878 88.3776C61.9277 90.5744 59.2396 90.7563 56.2945 88.9535C55.4706 88.4514 54.6948 87.8884 53.8709 87.3864C47.3614 83.5046 40.7165 83.0007 34.216 85.5863C27.7422 88.1628 27.2436 95.0265 33.0674 99.5137C34.8236 100.866 42.4711 103.824 44.0194 104.625L44.0567 104.701ZM204.744 158.178C203.55 157.684 202.514 157.196 201.436 156.811C193.923 154.191 185.143 156.137 180.522 161.439C177.517 164.884 178.282 169.078 182.623 171.72C184.302 172.757 186.307 173.343 188.181 174.077C190.309 174.917 192.509 175.583 194.588 176.543C196.008 177.211 196.929 178.42 196.665 179.947C196.422 181.422 195.266 182.055 193.718 182.365C192.188 182.682 190.611 183.06 189.263 183.715C185.259 185.696 182.06 188.556 179.26 191.782C175.913 195.61 175.66 200.05 177.482 204.904C178.825 208.529 181.534 210.517 185.517 211.416C191.496 212.755 197.069 212.19 202.452 210.314C205.042 209.425 207.528 208.291 210.099 207.394C214.993 205.7 217.798 206.678 220.672 211.037C221.564 212.374 222.287 213.784 223.152 215.131C224.532 217.338 225.878 219.571 227.365 221.741C230.055 225.66 233.647 228.78 238.003 231.106C242.808 233.677 247.41 234.023 251.9 231.254C257.362 227.855 259.571 220.567 256.721 214.097C256.097 212.668 255.16 211.331 254.429 209.938C252.572 206.444 254.23 203.654 258.31 203.543C259.513 203.515 260.723 203.692 261.937 203.749C265.058 203.908 268.176 204.126 271.274 204.174C274.715 204.222 277.905 203.379 280.695 201.785C281.899 201.091 283.067 200.039 283.664 198.871C285.99 194.298 283.822 189.504 278.334 187.478C270.663 184.631 262.829 183.898 255.014 184.951C252.44 185.301 250.754 184.443 250.636 182.011C250.525 180.006 250.977 177.97 251.451 176.046C252.06 173.631 253.074 171.343 253.675 168.945C254.674 164.975 254.949 160.927 253.197 156.79C252.205 154.421 250.549 152.827 247.79 152.071C243.57 150.913 239.855 151.64 236.463 153.47C231.587 156.061 227.623 159.553 224.473 163.847C223.618 165.028 222.491 166.037 221.415 167.087C220.455 168.024 219.361 167.955 218.206 167.033C217.329 166.328 216.451 165.622 215.547 164.925C212.144 162.347 208.871 159.56 204.789 158.237L204.744 158.178ZM109.786 93.3441C109.984 94.8603 111.967 95.72 113.21 94.8197C116.513 92.4278 119.523 89.6924 122.903 87.3926C137.578 77.3382 154.353 71.9086 173.612 72.1714C189.364 72.3787 203.175 78.0051 214.567 88.6515C230.836 103.858 238.263 121.936 238.041 142.164C238.041 142.164 238.041 142.164 238.034 142.181C238.029 143.412 239.227 144.452 240.557 144.395C241.655 144.344 242.727 144.302 243.798 144.261C245.194 144.211 246.261 143.238 246.325 141.972C246.595 137.215 246.414 132.495 245.626 127.746C244.15 118.672 241.405 109.842 237.718 101.127C227.267 76.3873 199.61 60.0091 173.232 60.9451C165.163 61.2261 157.514 62.8729 149.756 64.2317C133.887 67.026 121.31 74.7762 109.794 84.1166C109.307 84.5209 108.829 85.2326 108.864 85.8128C109.087 88.2682 109.422 90.7296 109.759 93.3533L109.786 93.3441ZM216.332 156.26C216.776 157.737 218.864 158.175 219.797 157.026C222.617 153.586 226.013 150.747 229.751 148.192C230.392 147.75 230.638 146.599 230.705 145.717C231.703 129.547 227.201 114.375 216.127 100.628C204.239 85.8578 188.758 78.2282 169.35 79.1564C155.561 79.8007 143.268 83.8705 131.982 90.2153C130.153 91.2573 128.445 92.4503 126.77 93.6767C125.662 94.4713 126.106 96.1698 127.526 96.6153C131.093 97.7459 134.601 98.8522 138.234 99.9897C139.549 100.412 140.962 100.208 141.963 99.4505C146.082 96.3049 151.146 94.0345 156.322 91.9921C167.162 87.7253 178.185 88.5036 188.944 94.7476C201.145 101.83 208.682 112.155 212.646 124.358C215.868 134.254 217.082 144.35 216.23 154.4C216.176 155.085 216.197 155.7 216.359 156.251L216.332 156.26Z" fill="#8DA4B5" fill-opacity="0.4"/>
</g>
<defs>
<clipPath id="clip0_2800_12147">
<rect width="291.217" height="154.59" fill="white" transform="translate(59.0413) rotate(22.4528)"/>
</clipPath>
</defs>
</svg>
