<svg width="278" height="149" viewBox="0 0 278 149" fill="none" xmlns="http://www.w3.org/2000/svg">
<g clip-path="url(#clip0_2800_12153)">
<path d="M152.925 81.2908C152.256 80.8768 151.298 81.0505 150.794 81.6682C147.504 85.5828 144.394 89.3942 141.113 93.0998C133.858 101.262 125.872 108.778 116.307 114.924C112.731 117.233 108.993 119.35 104.816 120.427C94.9712 122.965 85.5961 122.73 77.3012 117.655C76.8992 117.404 76.312 117.533 76.0009 117.92C75.7767 118.215 75.5491 118.496 75.3284 118.803C71.1018 124.638 66.1924 130.006 60.4515 134.77C56.422 138.124 51.8918 140.799 46.5624 141.977C38.977 143.663 32.042 142.774 26.0285 138.716C20.4902 134.943 17.101 129.906 15.0276 124.007C10.5595 111.246 10.6772 98.0432 13.3603 84.5954C13.5531 83.6474 13.8568 82.6972 14.2705 81.8003C14.8774 80.4932 16.047 79.9181 17.319 80.1431C18.4766 80.3573 19.1299 81.1893 18.9844 82.5522C18.6468 85.5802 18.1798 88.6014 17.8571 91.6254C17.2376 97.2941 16.8701 102.95 17.5843 108.538C18.3793 114.904 19.7282 121.135 22.7185 126.886C24.6505 130.589 27.6031 133.577 31.5669 135.578C37.8133 138.72 44.4393 138.394 50.9495 134.955C53.6193 133.551 56.0792 131.72 58.341 129.805C63.6254 125.301 68.0049 120.157 71.8403 114.648C72.3354 113.936 72.4976 113.41 71.9349 112.678C67.5835 107.085 65.7283 100.63 65.2581 93.7502C64.7589 86.4639 65.5946 79.2203 68.135 72.0307C69.3778 68.5122 71.0317 65.1594 73.4574 62.0691C75.5869 59.3614 78.2068 57.1155 81.5416 55.5747C86.8448 53.107 91.8513 54.7736 93.6204 59.596C94.4522 61.8696 94.5308 64.2483 94.4789 66.6758C94.2127 80.2766 89.6127 93.1755 83.2792 105.794C82.3819 107.565 81.4331 109.322 80.4535 111.143C79.9539 112.076 80.1952 113.156 81.0829 113.733C82.2077 114.48 83.4721 115.093 84.8279 115.571C89.0249 117.013 93.4647 117.218 98.0391 116.793C102.784 116.351 107.145 114.77 111.156 112.303C115.91 109.39 120.341 106.107 124.439 102.473C133.072 94.8108 140.419 86.2793 147.183 77.3525C147.654 76.7299 148.075 76.2173 147.607 75.3633C145.255 71.2211 144.716 66.6484 145.128 61.9318C146.046 51.301 149.506 41.2312 156.382 32.0121C157.849 30.0471 159.68 28.247 161.556 26.5587C162.622 25.5976 164.058 24.827 165.464 24.2991C169.214 22.8815 172.241 24.0022 173.807 27.1136C175.025 29.5184 175.24 32.1089 175.121 34.7612C174.934 38.9486 173.743 43.0187 172.257 47.0575C169.078 55.6731 164.169 63.6069 158.478 71.2397C157.821 72.1191 156.759 73.6309 156.03 74.7223C155.481 75.5313 155.624 76.5412 156.412 77.1026C157.835 78.1285 159.588 78.7212 161.509 79.0483C164.935 79.6346 168.43 79.3473 171.912 78.7739C180.528 77.3642 188.309 73.8472 195.959 70.0204C210.882 62.5645 224.286 53.3083 236.375 42.4735C239.242 39.8994 242.203 37.4381 245.07 34.864C249.195 31.1532 252.444 26.8495 255.758 22.611C256.316 21.8962 256.948 21.2169 257.648 20.6157C258.544 19.8519 259.615 19.7444 260.664 20.2083C261.662 20.6585 262.09 21.6611 261.705 22.7847C261.512 23.3742 261.174 23.961 260.808 24.5003C256.684 30.2383 252.143 35.6739 246.546 40.4406C238.887 46.973 231.427 53.7141 223.106 59.6235C212.365 67.2705 200.886 73.8322 188.549 79.0927C182.895 81.5024 177.027 83.3489 170.856 84.0629C164.359 84.809 158.199 84.5544 152.991 81.3006L152.925 81.2908ZM74.7271 106.966C75.0803 107.63 76.1953 107.566 76.5611 106.847C77.4927 105.026 78.4277 103.217 79.2929 101.385C84.6726 90.0294 88.5695 78.4357 88.6103 66.3158C88.6192 64.5618 88.3029 62.7846 87.807 61.1106C87.3215 59.4753 86.1547 59.167 84.2696 59.8094C82.34 60.4639 80.8137 61.6723 79.4513 63.0162C77.2172 65.214 75.6497 67.7574 74.5528 70.4508C69.9949 81.6007 69.3534 92.6678 73.1034 103.58C73.513 104.753 74.1126 105.861 74.7123 106.97L74.7271 106.966ZM151.357 70.0704C151.477 70.5209 152.179 70.5813 152.468 70.1728C155.365 65.9221 158.438 61.7344 161.096 57.3681C164.78 51.293 167.559 44.936 168.891 38.2353C169.418 35.5567 169.604 32.8587 168.812 30.2572C168.267 28.4585 167.752 28.3206 165.92 29.4592C163.773 30.7923 162.272 32.6285 160.88 34.5181C154.879 42.6615 151.835 51.5443 150.759 60.866C150.41 63.9108 150.457 66.9462 151.36 70.0833L151.357 70.0704Z" fill="#E16ED9" fill-opacity="0.4"/>
</g>
<defs>
<clipPath id="clip0_2800_12153">
<rect width="265" height="83" fill="white" transform="translate(0 68.5186) rotate(-14.9846)"/>
</clipPath>
</defs>
</svg>
