<svg width="160" height="221" viewBox="0 0 160 221" fill="none" xmlns="http://www.w3.org/2000/svg">
<g clip-path="url(#clip0_2800_12138)">
<path d="M129.206 166.615C127.241 165.346 124.495 166.225 123.651 168.427C121.917 172.951 120.318 177.257 118.402 181.391C115.038 188.656 110.652 195.425 104.654 201.088C100.658 204.826 96.1906 207.811 90.5885 208.721C83.6038 209.817 77.7508 207.757 72.9764 203.067C69.1532 199.331 66.6752 194.833 65.0819 189.879C61.2212 177.737 59.2129 165.283 59.5087 152.471C59.532 150.818 58.0738 149.56 56.3478 149.765C53.194 150.131 50.1216 150.512 47.0755 150.557C43.4871 150.6 39.7805 150.345 36.3437 149.506C28.2672 147.528 22.8633 140.335 22.9261 132.304C22.9545 125.015 25.3798 118.44 30.1208 112.564C37.8001 103.049 47.5556 96.2371 59.2424 92.0197C59.5676 91.9328 59.8385 91.7874 60.1637 91.7006C63.4242 90.574 65.4507 87.4351 65.0093 84.1865C64.522 80.6209 64.08 77.0798 63.8368 73.5587C63.1425 62.5471 65.9656 52.0968 71.1402 42.1898C74.2629 36.1968 78.6081 31.1582 84.6377 27.4995C94.1065 21.7885 104.584 22.1751 113.168 28.6656C118.447 32.6353 122.02 37.9019 124.899 43.6101C126.533 46.8329 128.069 50.1189 129.622 53.4731C130.794 55.9778 134.194 56.6801 136.404 54.8094C137.956 53.517 139.49 52.3026 141.187 51.2641C146.521 47.9008 152.073 44.7722 157.68 41.8485C162.907 39.0993 168.718 38.6823 174.495 39.0065C189.99 39.9198 200.448 51.6913 199.29 66.7834C198.781 73.4325 196.3 79.5102 192.933 85.3123C190.898 88.8559 188.728 92.326 186.367 95.6639C184.989 97.6053 185.109 98.927 186.452 100.764C192.808 109.35 198.198 118.522 202.189 128.398C207.007 140.357 207.134 152.289 199.794 163.799C192.076 175.922 181.062 181.935 166.126 180.507C152.375 179.165 140.413 173.795 129.242 166.605L129.206 166.615ZM75.9011 177.917C77.1773 182.552 79.1488 186.893 81.4361 190.966C84.2407 195.962 88.2279 196.398 92.8926 192.701C94.3272 191.55 95.8157 190.311 96.7704 188.812C100.184 183.473 103.76 178.164 106.594 172.541C109.267 167.18 111.016 161.408 113.326 155.851C114.126 153.918 115.044 151.99 116.296 150.301C118.153 147.83 121.359 146.645 123.666 147.602C127.158 149.085 130.543 150.743 133.819 152.576C138.453 155.145 142.835 158.073 147.55 160.51C154.066 163.894 161.067 166.05 168.589 166.676C176.744 167.354 182.684 163.939 187.08 157.496C191.728 150.693 191.911 143.546 189.48 136.181C185.757 124.844 179.452 114.854 171.982 105.578C168.401 101.155 168.374 97.2835 171.564 92.6999C174.942 87.8096 178.32 82.9193 181.038 77.7297C182.964 74.0687 184.536 69.9533 184.979 65.9564C185.972 57.6412 179.577 51.8106 170.874 52.5603C168.154 52.8108 165.353 53.4852 162.78 54.4284C155.319 57.0785 149.283 61.8732 143.148 66.5847C139.295 69.5526 135.225 72.2857 131.127 74.9164C128.78 76.421 126.221 75.9698 124.256 74.2624C122.942 73.1127 121.773 71.6319 121.019 70.1133C118.631 65.2257 116.72 60.1005 114.196 55.2856C111.609 50.3778 108.976 45.2993 105.405 41.0566C101.163 36.0416 95.3328 36.0977 90.3267 40.6906C87.774 43.0186 85.5752 45.9474 83.9732 48.9365C80.1214 56.2584 77.9429 64.0484 78.5582 72.1538C78.9966 78.0011 80.0765 83.787 81.1204 89.5825C82.0177 94.5389 80.8212 97.0172 75.8725 99.07C72.0076 100.687 68.0791 102.212 64.2323 103.897C55.5183 107.65 47.7201 112.659 42.0788 120.093C39.9611 122.89 38.4144 126.377 37.6087 129.739C36.4359 134.626 38.33 136.791 43.5097 136.909C47.5233 137.008 51.5443 136.411 55.566 136.106C58.6387 135.871 61.756 135.368 64.8386 135.46C68.2284 135.543 70.4471 137.329 70.8328 139.934C71.4116 143.987 71.6923 148.084 72.2711 152.137C73.4841 160.742 73.7395 169.529 76.0457 177.878L75.9011 177.917Z" fill="#6E9C75" fill-opacity="0.4"/>
<path d="M121.09 135.921C117.54 136.832 113.942 136.695 110.37 136.075C108.38 135.728 106.47 134.372 104.921 133.065C102.92 131.368 102.553 128.977 103.731 126.577C104.91 124.177 107.184 122.691 109.78 123.279C124.204 126.418 125.885 114.443 126.047 114.034C127.07 111.053 129.89 110.739 132.54 111.386C136.609 112.275 137.001 121.136 135.606 124.033C133.132 129.121 128.931 133.974 121.063 135.965L121.09 135.921Z" fill="#6E9C75" fill-opacity="0.4"/>
<path d="M140.639 95.9046C141.751 99.633 139.374 103.78 135.643 104.74C132.02 105.67 128.21 103.431 127.162 99.795C126.032 95.8521 128.147 91.8845 131.85 90.8227C135.563 89.795 139.5 92.0738 140.648 95.9388L140.639 95.9046Z" fill="#6E9C75" fill-opacity="0.4"/>
<path d="M90.8631 108.533C94.6659 107.408 98.8021 109.707 99.8051 113.464C100.762 117.051 98.4303 120.93 94.7447 121.914C91.0951 122.888 87.2305 120.736 86.1464 117.11C85.0715 113.519 87.2409 109.61 90.8992 108.523L90.8631 108.533Z" fill="#6E9C75" fill-opacity="0.4"/>
</g>
<defs>
<clipPath id="clip0_2800_12138">
<rect width="189.54" height="177.863" fill="white" transform="translate(0 48.8848) rotate(-14.9462)"/>
</clipPath>
</defs>
</svg>
