<svg width="260" height="225" viewBox="0 0 260 225" fill="none" xmlns="http://www.w3.org/2000/svg">
<g clip-path="url(#clip0_2611_875)">
<path d="M45.6014 97.7453C67.5741 80.8246 93.0497 75.0075 120.287 73.9672C121.752 73.9035 123.047 72.9694 123.557 71.5894V71.5469C124.3 69.4663 124.746 67.1947 125.892 65.3901C127.336 63.1609 127.336 60.9742 126.975 58.5751C125.977 51.7389 125.276 44.8815 125.637 37.9816C125.828 34.4574 126.062 30.9119 126.784 27.4726C128.525 19.2776 133.662 16.7937 141.347 20.1693C145.126 21.8253 148.396 24.2031 151.283 27.1329C154.68 30.5934 158.055 34.1177 161.346 37.7056C162.619 39.0856 163.766 39.3404 165.995 38.2576C170.22 36.2195 174.763 34.9457 179.412 34.3937C181.408 34.1602 182.023 33.6294 182.363 32.2494C184.528 23.4813 188.392 15.4562 193.7 8.19535C195.547 5.66893 197.946 3.41851 200.514 1.61392C204.442 -1.14603 208.454 -0.211895 211.002 3.84312C212.382 6.05108 213.401 8.5775 214.186 11.0827C216.161 17.5155 217.095 24.1819 217.562 30.8907C217.689 32.674 217.838 34.4362 217.986 36.3044C218.093 37.6419 218.984 38.7884 220.258 39.2342C228.92 42.3551 235.607 47.9387 240.15 56.1336C240.702 57.1315 241.891 57.6198 242.995 57.2589C243.059 57.2589 243.122 57.2164 243.186 57.1952C244.269 56.8342 245.33 56.3247 246.434 56.0487C248.621 55.518 250.574 56.3672 251.381 58.1081C252.272 59.9976 251.614 62.0782 249.555 63.3308C248.663 63.8827 247.708 64.3286 246.795 64.7744C245.734 65.284 245.097 66.3879 245.224 67.5556C245.543 70.7614 245.84 73.9035 246.158 77.1093C246.371 79.2111 247.963 80.9095 250.043 81.228C251.296 81.4191 252.548 81.6314 253.822 81.9074C255.266 82.2046 256.731 82.7141 258.047 83.3723C259.49 84.0941 260.255 85.4104 259.979 87.1088C259.703 88.7223 258.493 89.5928 257.049 89.7839C255.499 89.9962 253.886 89.9112 252.315 89.7839C250.404 89.6352 248.515 89.4017 246.583 89.1682C245.458 89.0408 244.375 89.6989 243.993 90.7817C243.929 90.9728 243.844 91.1851 243.781 91.3761C240.002 102.437 233.505 111.354 223.655 117.893C217.838 121.757 206.183 126.746 200.812 128.954C199.156 129.633 198.094 131.311 198.222 133.115C198.264 133.688 198.285 134.24 198.307 134.814C198.689 149.399 198.816 163.963 197.5 178.527C196.884 185.3 196.12 192.051 194.252 198.611C193.53 201.159 192.638 203.685 191.471 206.042C190.473 208.08 189.199 210.075 187.692 211.753C182.979 217.018 177.119 217.803 171.345 213.748C168.946 212.05 166.674 209.863 165.018 207.443C162.853 204.258 161.346 200.628 159.562 197.189C159.201 196.467 158.182 196.615 158.013 197.38C157.524 199.694 157.121 201.796 156.463 203.812C155.168 207.825 153.809 211.88 151.962 215.659C150.837 217.973 148.99 220.054 147.079 221.837C143.874 224.831 140.031 225.234 135.976 223.578C132.686 222.219 130.18 219.905 128.206 216.975C124.427 211.392 122.347 205.129 120.839 198.632C118.674 189.376 118.186 179.928 117.867 170.481C117.867 170.29 117.846 170.035 117.804 169.759C117.655 168.527 116.53 167.657 115.298 167.827C110.373 168.506 105.405 169.186 100.268 169.907C98.8454 170.099 97.7839 171.309 97.7627 172.752C97.7627 172.88 97.7627 173.007 97.7627 173.135C97.5504 180.204 97.5929 187.274 97.0409 194.322C96.4889 201.392 94.5783 208.228 91.7972 214.767C90.948 216.763 89.6954 218.674 88.273 220.33C83.8785 225.467 76.7241 226.487 70.9708 222.92C66.2154 219.969 63.0522 215.68 60.9292 210.585C60.4834 209.46 58.9336 209.502 58.5303 210.627C58.042 211.986 57.5325 213.324 56.8956 214.576C55.7704 216.742 54.4542 218.907 52.7558 220.648C49.3803 224.151 44.4337 224.788 40.0392 222.686C37.2793 221.37 35.0078 219.396 33.1183 217.018C26.9829 209.332 23.3951 200.501 21.1023 191.011C17.1111 174.345 17.8117 157.7 21.4844 141.119C22.6521 135.875 24.1806 130.695 25.7091 125.557C26.155 124.071 25.5818 123.307 24.7114 122.33C14.5423 110.738 7.26055 97.4905 2.67494 82.799C-0.403369 73.0331 -0.445828 63.0548 0.658115 53.0552C1.08271 49.2125 1.65591 45.3274 2.59002 41.5696C5.51971 29.6381 12.6104 20.8699 23.5437 15.3075C27.2801 13.3968 31.3138 12.3141 35.6022 13.1208C43.8181 14.6706 48.7646 20.2755 49.4227 28.6402C49.911 34.6485 48.9981 40.4444 46.9601 46.0917C45.2192 50.911 43.2236 55.6453 41.8013 60.5496C40.761 64.1587 40.0816 67.9802 39.8694 71.7168C39.5721 77.5127 39.6571 83.351 39.8694 89.1682C39.9543 91.5884 40.3789 93.9662 41.1431 96.3228C41.7588 98.1911 43.9879 98.8917 45.5589 97.7028L45.6014 97.7453ZM126.019 103.584C123.557 97.2782 122.325 90.8242 122.049 84.0941C121.986 82.4169 120.585 81.1855 118.929 81.3342C118.016 81.4191 117.145 81.504 116.275 81.5889C115.107 81.6951 114.258 82.7141 114.343 83.8818C115.298 96.153 115.659 108.445 113.515 120.632C112.751 124.941 111.498 129.23 109.991 133.349C108.654 136.958 106.573 140.44 102.094 140.609C97.6353 140.779 95.2788 137.489 93.4956 134.092C91.8609 130.992 90.396 127.68 89.5681 124.305C86.8294 113.01 85.5344 101.524 85.7042 89.89C85.7042 88.3614 84.2819 87.2787 82.8382 87.7245C81.8192 88.043 80.8427 88.3614 79.8873 88.6586C78.8683 88.9771 78.2102 89.9962 78.3588 91.0789C78.4649 91.822 78.5498 92.5014 78.5498 93.1807C78.7621 103.435 79.1018 113.689 79.0169 123.922C78.9744 128.296 78.3375 132.754 77.361 137.022C76.7029 139.866 75.3017 142.69 73.6246 145.11C70.9072 149.059 66.64 149.802 62.3516 147.637C59.6979 146.299 57.3838 144.41 55.919 141.862C54.1569 138.826 52.4798 135.663 51.3758 132.351C49.1467 125.706 48.4886 118.721 48.0852 111.736C48.0852 111.439 48.0428 111.142 48.0216 110.866C47.9154 109.316 46.026 108.594 44.922 109.698C44.6885 109.932 44.4762 110.144 44.3276 110.314C37.9375 117.341 33.458 125.536 30.9317 134.686C27.3651 147.594 25.7304 160.842 26.6008 174.281C27.1952 183.516 28.9785 192.497 32.63 201.031C34.7105 205.914 37.152 210.67 41.1219 214.364C44.3913 217.4 47.321 216.997 49.1467 212.942C50.6116 209.672 51.9066 206.169 52.3949 202.645C53.7536 192.858 54.6452 183.007 55.7492 173.177C56.0039 170.99 56.1738 168.761 56.747 166.659C57.2777 164.706 58.6576 163.899 60.2711 164.048C61.9907 164.218 62.9885 165.3 63.3494 166.893C63.6254 168.167 63.774 169.504 63.8164 170.82C64.0287 177.168 64.0712 183.537 64.3684 189.885C64.6232 195.469 65.4936 200.989 67.4892 206.211C68.5082 208.887 69.9306 211.562 71.7563 213.727C76.5755 219.459 81.9891 218.525 84.6428 211.54C87.0205 205.341 88.6552 198.866 89.0585 192.242C89.5044 185.024 89.5044 177.763 89.7167 170.523C89.7591 169.292 89.7167 168.06 89.8865 166.872C90.2262 164.685 91.9458 162.986 94.1324 162.668C97.8264 162.137 101.542 161.606 105.236 161.076C109.524 160.439 113.77 159.589 118.08 159.207C123.769 158.698 126.126 161.097 125.998 166.001C125.786 175.088 126.402 184.196 127.951 193.197C128.97 199.142 130.456 204.98 133.407 210.267C134.469 212.156 135.87 213.961 137.505 215.383C139.691 217.315 141.475 217.166 143.131 214.789C144.829 212.368 146.336 209.693 147.334 206.912C150.2 198.887 151.495 190.501 152.217 182.03C152.641 176.829 153.045 171.648 153.682 166.468C154.021 163.751 155.975 162.031 157.928 162.18C159.944 162.328 161.027 163.857 161.409 166.787C162.067 171.861 162.683 176.956 163.617 181.988C164.849 188.59 166.483 195.15 170.05 200.968C171.324 203.048 172.852 205.065 174.678 206.679C177.353 209.056 181.004 208.547 182.936 205.532C184.55 203.006 185.993 200.161 186.63 197.273C188.01 190.904 189.22 184.45 189.772 177.975C190.791 166.128 190.388 143.773 190.133 135.302C190.069 133.455 188.498 132.032 186.673 132.16C183.637 132.372 180.665 132.584 177.692 132.648C166.547 132.839 155.911 130.695 146.039 125.366C143.831 124.177 143.874 124.198 142.027 125.876C139.479 128.19 136.953 130.546 134.235 132.648C132.601 133.922 130.839 133.667 129.607 132.521C128.525 131.48 128.164 129.74 129.098 128.105C130.011 126.512 131.199 125.048 132.452 123.689C133.322 122.733 134.278 121.821 135.254 120.929C136.273 119.995 136.316 118.402 135.382 117.383L132.813 114.581C131.985 113.668 130.584 113.519 129.586 114.241C129.331 114.411 129.098 114.602 128.843 114.751C127.739 115.473 126.635 116.216 125.425 116.746C123.939 117.405 122.453 117.256 121.306 115.961C120.202 114.708 120.011 113.201 120.818 111.779C121.476 110.653 122.325 109.613 123.238 108.679C123.833 108.084 124.491 107.532 125.191 106.938C126.189 106.11 126.529 104.751 126.062 103.541L126.019 103.584ZM151.495 116.195C150.434 117.277 150.773 119.082 152.132 119.74C152.344 119.846 152.535 119.931 152.748 120.016C159.987 123.137 167.587 124.623 175.421 124.814C189.135 125.175 201.958 121.714 214.208 115.643C224.822 110.399 231.425 101.843 235.607 91.0789C235.692 90.8454 235.777 90.6331 235.841 90.3783C236.202 89.2743 235.437 88.1067 234.27 88.0005C233.909 87.958 233.569 87.9368 233.229 87.8944C229.981 87.5334 226.712 87.2999 223.485 86.7904C220.746 86.3658 219.345 84.0092 220.279 81.8012C220.98 80.1452 222.402 79.4022 224.079 79.3385C226.011 79.2748 227.964 79.4234 229.896 79.5083C231.977 79.6145 234.057 79.7206 236.138 79.848C237.242 79.9117 238.218 79.0837 238.346 77.9797C238.622 75.6019 238.452 73.3303 238.07 70.9949C237.879 69.8697 236.669 69.254 235.65 69.7636C233.442 70.8888 231.382 71.9291 229.302 72.9481C228.113 73.5214 226.903 74.137 225.65 74.498C223.421 75.1349 221.511 74.3069 220.661 72.566C219.876 70.9525 220.322 68.9356 221.999 67.5768C223.082 66.7064 224.355 66.0058 225.587 65.3476C227.71 64.2224 229.875 63.1397 231.998 62.0569C233.081 61.5049 233.484 60.1674 232.868 59.1059C229.153 52.8005 223.57 48.6393 216.904 46.1341C211.702 44.1809 209.537 40.6142 209.452 35.4128C209.452 35.1368 209.452 34.6909 209.41 34.4149C208.836 27.4513 208.221 20.509 206.246 13.7577C205.992 12.8448 205.673 11.9531 205.334 11.0402C204.93 9.91502 203.508 9.59656 202.637 10.4033C201.321 11.5922 200.387 12.951 199.495 14.3309C194.804 21.6554 191.195 29.4682 188.647 37.8118C188.286 39.0007 187.097 40.1471 185.993 40.869C184.868 41.6333 183.382 41.9093 182.045 42.3126C177.544 43.5865 173.043 44.8603 168.521 46.0704C166.993 46.4738 165.379 46.5587 163.872 47.0258C160.794 47.9812 158.565 46.7073 156.548 44.6055C153.384 41.2723 150.306 37.8542 146.994 34.6697C144.659 32.4193 142.048 30.4236 139.437 28.4704C139.161 28.2581 138.863 28.0883 138.524 27.9396C136.931 27.1966 135.063 28.1519 134.766 29.8928C133.789 35.5189 133.598 41.1662 134.044 46.8347C134.384 51.1445 134.851 55.4543 135.212 59.764C135.424 62.3754 135.085 64.8381 133.62 67.131C132.834 68.3836 132.282 69.8273 131.9 71.2709C130.159 77.8311 129.459 84.4762 130.754 91.2063C131.157 93.3081 131.709 95.3675 132.303 97.4905C132.707 98.9554 134.448 99.5923 135.679 98.7006C138.099 96.981 140.349 95.3887 142.642 93.8389C143.725 93.0958 144.935 92.4589 146.166 92.0343C147.865 91.4611 149.521 92.098 150.391 93.4143C151.304 94.773 151.155 96.7262 149.945 98.0637C149.351 98.7219 148.629 99.2526 147.928 99.7834C145.551 101.609 143.131 103.414 140.753 105.24C140.371 105.537 139.989 105.834 139.606 106.153C138.375 107.15 138.269 108.997 139.352 110.165L141.05 111.97C141.878 112.84 143.237 112.904 144.128 112.097C144.383 111.863 144.638 111.63 144.914 111.396C148.035 108.658 151.134 105.898 154.34 103.265C155.338 102.437 156.59 101.864 157.8 101.418C159.032 100.972 160.284 101.248 161.133 102.374C161.983 103.477 161.961 104.709 161.282 105.855C160.794 106.683 160.157 107.448 159.499 108.148C157.524 110.186 155.507 112.161 153.512 114.156C152.875 114.815 152.217 115.473 151.559 116.152L151.495 116.195ZM9.17122 48.5332C8.85278 50.5713 10.8059 52.2272 12.759 51.5691C19.0643 49.4461 31.1652 45.4547 38.2984 44.096C38.914 43.9686 39.6995 43.268 39.9118 42.6523C41.6314 37.9604 42.4381 33.0774 41.6951 28.1095C40.8247 22.356 36.048 19.3201 30.4434 20.9548C28.4478 21.5493 26.4522 22.4197 24.6901 23.5237C15.2429 29.4258 10.8484 38.1302 9.21368 48.5332H9.17122ZM71.353 95.7072C71.353 93.9026 69.4211 92.7349 67.8076 93.5204C63.4555 95.6435 61.5236 96.5351 57.6811 99.2102C57.1291 99.5923 54.7301 100.802 54.7301 102.904C54.7301 111.418 55.5793 119.846 57.5325 128.126C58.3604 131.65 59.5705 135.111 61.8633 137.998C63.1583 139.633 64.5383 141.841 66.8735 141.331C68.8903 140.885 69.4635 138.486 69.8669 136.639C70.5887 133.285 71.3742 129.867 71.4379 126.47C71.6077 116.216 71.4379 105.983 71.3954 95.7284C71.3954 95.7284 71.3954 95.7071 71.3954 95.6859L71.353 95.7072ZM103.41 130.058C107.55 120.186 108.378 98.4671 107.125 85.8987C106.934 84.0729 105.278 82.7778 103.474 83.0326C100.416 83.4572 97.3594 84.0304 94.2174 84.8159C92.6676 85.2193 91.6273 86.6842 91.7972 88.2977C92.795 97.2782 93.7715 106.131 94.833 114.942C95.4062 119.591 96.2766 124.198 98.2722 128.487C98.5482 129.081 98.8667 129.676 99.2063 130.249C100.162 131.926 102.646 131.82 103.389 130.037L103.41 130.058ZM9.31983 76.3875C9.85057 78.6591 12.3769 79.848 14.4362 78.7653C19.5525 76.069 24.7538 74.0946 29.9339 72.0777C31.1864 71.5894 32.0993 71.1011 32.163 69.5725C32.2904 66.1969 33.7552 60.3373 34.8167 56.4309C35.3262 54.5626 33.6066 52.8642 31.7384 53.3949C26.0913 54.9872 16.7078 58.2779 10.2539 60.9529C8.91646 61.5049 8.04605 62.8 8.00359 64.2437C7.9399 68.3199 8.36449 72.3537 9.2986 76.4299L9.31983 76.3875ZM27.2165 112.946C28.5539 114.666 31.2289 114.475 32.3116 112.522C33.0759 111.12 33.925 109.762 35.0078 108.594C36.791 106.662 37.3855 105.685 36.3452 103.902C33.8826 99.6348 32.6513 94.9641 32.1842 90.0811C31.9719 87.8731 31.8233 85.6652 31.6747 83.3723C31.5685 81.6526 29.764 80.5911 28.193 81.2917C26.2187 82.1834 24.308 83.0538 22.3549 83.8606C20.4442 84.6673 18.5335 85.4316 16.6016 86.1959C14.5848 87.0027 13.6295 89.2956 14.4786 91.2912C17.3022 97.8939 22.9917 107.575 27.1952 112.967L27.2165 112.946Z" fill="#C2A790" fill-opacity="0.4"/>
<path d="M190.218 98.637C189.709 100.802 189.305 102.586 188.881 104.348C188.583 105.537 188.371 106.768 187.925 107.915C187.161 109.91 185.59 110.929 183.913 110.675C182.066 110.399 180.728 108.891 180.835 106.662C180.919 104.56 181.323 102.48 181.726 100.399C182.023 98.8493 182.533 97.3419 182.979 95.7072C182.108 95.3038 181.323 94.9641 180.559 94.5607C177.438 92.8835 176.652 89.5716 178.754 86.7267C179.412 85.835 180.304 85.007 181.259 84.4126C185.272 81.8862 189.73 80.9733 194.422 81.3979C197.054 81.6314 198.413 83.5421 199.347 85.6864C200.238 87.7245 199.729 89.6777 198.307 91.3549C197.861 91.8857 197.351 92.374 196.693 93.0746C198.476 94.7518 200.217 96.3653 201.894 98.0213C203.02 99.1465 204.166 100.25 205.1 101.524C206.225 103.032 206.14 104.709 205.164 105.94C204.251 107.108 202.446 107.617 200.833 106.959C199.708 106.513 198.583 105.898 197.648 105.133C195.801 103.647 194.061 101.991 192.299 100.42C191.725 99.9108 191.173 99.4225 190.26 98.637H190.218Z" fill="#C2A790" fill-opacity="0.4"/>
<path d="M157.928 76.4297C157.928 72.9692 159.52 70.8673 161.855 70.5064C164.127 70.1667 166.335 71.8439 166.95 74.519C167.481 76.8756 167.29 79.126 165.273 80.8032C163.936 81.9072 162.365 82.0558 160.815 81.249C158.607 80.0814 158.055 77.9795 157.928 76.4085V76.4297Z" fill="#C2A790" fill-opacity="0.4"/>
<path d="M199.835 65.1133C199.835 61.6528 201.427 59.5509 203.763 59.19C206.034 58.8503 208.242 60.5275 208.858 63.2026C209.388 65.5591 209.197 67.8096 207.181 69.4868C205.843 70.5908 204.272 70.7394 202.722 69.9326C200.514 68.7649 199.962 66.6631 199.835 65.0921V65.1133Z" fill="#C2A790" fill-opacity="0.4"/>
</g>
<defs>
<clipPath id="clip0_2611_875">
<rect width="260" height="225" fill="white"/>
</clipPath>
</defs>
</svg>
