<svg width="43" height="43" viewBox="0 0 43 43" fill="none" xmlns="http://www.w3.org/2000/svg">
<circle cx="21.4473" cy="21.4473" r="21.4473" fill="#D6D0C2"/>
<path d="M30.0547 13.6874C29.534 13.1668 28.9158 12.7538 28.2354 12.4721C27.5551 12.1905 26.8259 12.0456 26.0895 12.0459C25.3532 12.0462 24.6241 12.1916 23.944 12.4737C23.2638 12.7559 22.6459 13.1693 22.1257 13.6904L21.4465 14.3778L20.773 13.6919L20.7686 13.6875C20.2482 13.1671 19.6303 12.7542 18.9503 12.4726C18.2704 12.1909 17.5416 12.046 16.8056 12.046C16.0696 12.046 15.3408 12.1909 14.6608 12.4726C13.9808 12.7542 13.363 13.1671 12.8425 13.6875L12.54 13.9901C11.4889 15.0411 10.8984 16.4667 10.8984 17.9531C10.8984 19.4395 11.4889 20.8651 12.54 21.9161L20.5253 29.9013L21.4271 30.8461L21.4486 30.8246L21.4719 30.8479L22.3168 29.9565L30.3572 21.916C31.4067 20.8641 31.9961 19.4389 31.9961 17.953C31.9961 16.4671 31.4067 15.0418 30.3572 13.9899L30.0547 13.6874ZM29.3663 20.9252L21.4486 28.8431L13.5307 20.9252C12.7424 20.1369 12.2995 19.0678 12.2995 17.953C12.2995 16.8382 12.7424 15.769 13.5307 14.9807L13.8333 14.6782C14.6212 13.8903 15.6897 13.4474 16.8039 13.447C17.9182 13.4466 18.987 13.8886 19.7755 14.6759L21.4435 16.3742L23.1193 14.6782C23.5097 14.2878 23.973 13.9782 24.483 13.767C24.993 13.5557 25.5396 13.447 26.0916 13.447C26.6436 13.447 27.1902 13.5557 27.7002 13.767C28.2102 13.9782 28.6736 14.2878 29.0639 14.6782L29.3664 14.9807C30.1535 15.7696 30.5956 16.8386 30.5955 17.953C30.5955 19.0674 30.1534 20.1363 29.3663 20.9252Z" fill="black"/>
</svg>
