<svg width="22" height="19" viewBox="0 0 22 19" fill="none" xmlns="http://www.w3.org/2000/svg">
<path d="M20.0547 1.68743C19.534 1.16675 18.9158 0.753778 18.2354 0.472116C17.5551 0.190454 16.8259 0.0456223 16.0895 0.0458988C15.3532 0.0461753 14.6241 0.191554 13.944 0.473727C13.2638 0.755901 12.6459 1.16934 12.1257 1.69041L11.4465 2.37784L10.773 1.6919L10.7686 1.68752C10.2482 1.16708 9.63033 0.754249 8.95035 0.472591C8.27037 0.190933 7.54157 0.0459651 6.80557 0.0459651C6.06956 0.0459651 5.34076 0.190933 4.66078 0.472591C3.9808 0.754249 3.36296 1.16708 2.84253 1.68752L2.53997 1.99008C1.48891 3.04114 0.898437 4.46668 0.898438 5.95309C0.898437 7.43951 1.48891 8.86505 2.53997 9.91611L10.5253 17.9013L11.4271 18.8461L11.4486 18.8246L11.4719 18.8479L12.3168 17.9565L20.3572 9.91598C21.4067 8.86409 21.9961 7.43886 21.9961 5.95296C21.9961 4.46707 21.4067 3.04184 20.3572 1.98995L20.0547 1.68743ZM19.3663 8.92524L11.4486 16.8431L3.53066 8.92524C2.74237 8.13695 2.29952 7.0678 2.29952 5.95298C2.29952 4.83817 2.74237 3.76902 3.53066 2.98073L3.83327 2.67817C4.62117 1.89027 5.68968 1.44744 6.80394 1.44703C7.91821 1.44661 8.98705 1.88863 9.77555 2.67594L11.4435 4.37425L13.1193 2.67817C13.5097 2.28784 13.973 1.97822 14.483 1.76697C14.993 1.55573 15.5396 1.447 16.0916 1.447C16.6436 1.447 17.1902 1.55573 17.7002 1.76697C18.2102 1.97822 18.6736 2.28784 19.0639 2.67817L19.3664 2.98068C20.1535 3.76963 20.5956 4.83857 20.5955 5.953C20.5955 7.06743 20.1534 8.13634 19.3663 8.92524Z" fill="black"/>
</svg>
