<svg width="121" height="46" viewBox="0 0 121 46" fill="none" xmlns="http://www.w3.org/2000/svg">
<path d="M79.1684 28.8624C78.8764 28.549 78.3459 28.5007 77.9896 28.7501C75.6826 30.3171 73.4854 31.8563 71.2131 33.3154C66.1938 36.5251 60.8837 39.2915 54.9421 41.113C52.7193 41.7997 50.4386 42.3631 48.0794 42.3191C42.5185 42.2158 37.611 40.7321 33.9817 36.8772C33.8065 36.6877 33.4781 36.6702 33.2575 36.827C33.0962 36.9482 32.935 37.0622 32.7737 37.1907C29.6915 39.6243 26.3177 41.7157 22.5941 43.3704C19.979 44.5373 17.1995 45.2766 14.2177 45.1183C9.97253 44.8976 6.44705 43.4269 3.8714 40.4342C1.50436 37.6601 0.455257 34.5373 0.226054 31.1551C-0.260858 23.8415 1.73413 16.9632 5.11729 10.329C5.35767 9.86186 5.65691 9.40969 6.00629 9.00133C6.51755 8.40673 7.21825 8.27614 7.85585 8.57829C8.43467 8.85823 8.6572 9.38756 8.38098 10.0783C7.75971 11.6107 7.07123 13.1209 6.45838 14.6534C5.30194 17.5242 4.28005 20.4251 3.83849 23.447C3.32555 26.8872 3.12432 30.3376 3.85863 33.7751C4.33486 35.9896 5.45368 37.9791 7.25018 39.5995C10.0829 42.1469 13.6232 42.9388 17.5583 42.0877C19.1712 41.7419 20.7359 41.1428 22.2086 40.4707C25.6535 38.8855 28.7151 36.8345 31.5434 34.514C31.9086 34.2142 32.0711 33.9629 31.8816 33.4989C30.4068 29.946 30.3739 26.3057 31.1333 22.6439C31.9369 18.7659 33.438 15.104 35.8297 11.7178C36.9999 10.0605 38.3625 8.54951 40.0936 7.28756C41.6126 6.1825 43.3224 5.3898 45.3058 5.06914C48.4625 4.55015 50.8575 6.1473 51.0841 8.9228C51.1896 10.231 50.8828 11.4848 50.5001 12.7451C48.3685 19.81 44.0553 25.8791 38.8694 31.5501C38.1371 32.3448 37.3797 33.1249 36.5968 33.9336C36.1967 34.3487 36.1658 34.9478 36.5494 35.3776C37.0329 35.931 37.6096 36.4348 38.2543 36.8815C40.2555 38.2438 42.5658 38.9952 45.0392 39.4375C47.6052 39.8951 50.1352 39.7024 52.611 38.9964C55.5431 38.1647 58.3595 37.0936 61.0517 35.7902C66.724 33.0417 71.8461 29.6524 76.7182 25.9719C77.0577 25.7151 77.3546 25.5085 77.2331 24.9945C76.5995 22.4896 76.9852 20.0233 77.8928 17.6196C79.933 12.2006 83.2309 7.44343 88.2054 3.62663C89.2665 2.81334 90.4949 2.13886 91.731 1.52945C92.4337 1.18222 93.3036 0.988233 94.1217 0.916538C96.3062 0.720563 97.7375 1.74524 98.1076 3.59765C98.3974 5.03041 98.1315 6.41457 97.6803 7.78253C96.9689 9.94248 95.7453 11.8953 94.3706 13.789C91.4333 17.8273 87.6845 21.2585 83.5673 24.419C83.092 24.7828 82.3106 25.4182 81.7669 25.8825C81.3591 26.2253 81.2865 26.7735 81.6198 27.1811C82.2195 27.9235 83.0569 28.4875 84.0217 28.9372C85.7417 29.7407 87.626 30.098 89.5454 30.304C94.2935 30.8184 98.9099 30.111 103.503 29.2229C112.46 27.4949 120.881 24.6064 128.84 20.7023C130.728 19.774 132.649 18.9183 134.537 17.9901C137.255 16.6508 139.597 14.8747 141.965 13.1421C142.364 12.8498 142.796 12.5866 143.253 12.3743C143.837 12.1054 144.418 12.2048 144.903 12.5994C145.363 12.9793 145.441 13.565 145.074 14.096C144.886 14.3759 144.622 14.6334 144.35 14.8619C141.336 17.2601 138.147 19.4399 134.499 21.117C129.505 23.4169 124.586 25.8548 119.335 27.7334C112.553 30.1681 105.542 31.9289 98.2684 32.8855C94.9355 33.3234 91.572 33.436 88.2145 32.9131C84.6803 32.3596 81.4709 31.3325 79.202 28.8771L79.1684 28.8624ZM34.1898 30.9207C34.2788 31.3188 34.8759 31.4472 35.1739 31.1251C35.9316 30.3089 36.6893 29.5 37.4135 28.669C41.9118 23.5188 45.6634 18.0293 47.4593 11.7052C47.7208 10.7904 47.8143 9.81628 47.798 8.87C47.7814 7.9454 47.2115 7.61499 46.1238 7.67691C45.0108 7.73859 44.0294 8.14819 43.1145 8.6523C41.6151 9.47588 40.4164 10.5768 39.4439 11.8242C35.4089 16.986 33.4505 22.6731 33.8296 28.9167C33.8738 29.5888 34.0276 30.2547 34.1814 30.9207L34.1898 30.9207ZM79.9845 22.7745C79.9821 23.0272 80.3432 23.1607 80.5555 22.9893C82.7046 21.1897 84.9375 19.4486 86.978 17.554C89.8092 14.9158 92.2049 11.999 93.8879 8.69272C94.5578 7.37017 95.0512 5.98817 95.0146 4.51447C94.9906 3.4959 94.7391 3.34907 93.6068 3.6778C92.2801 4.06245 91.2196 4.80353 90.2094 5.58841C85.8542 8.97051 82.9492 13.168 81.0168 17.8803C80.3871 19.4199 79.9675 21.0121 79.9844 22.7817L79.9845 22.7745Z" fill="#FFC8F0"/>
</svg>
