<svg width="241" height="149" viewBox="0 0 241 149" fill="none" xmlns="http://www.w3.org/2000/svg">
<g clip-path="url(#clip0_2612_1178)">
<path d="M152.925 81.2918C152.256 80.8778 151.298 81.0515 150.794 81.6692C147.504 85.5838 144.394 89.3952 141.113 93.1008C133.858 101.263 125.872 108.779 116.307 114.925C112.731 117.234 108.993 119.351 104.816 120.428C94.9712 122.966 85.5961 122.731 77.3012 117.656C76.8992 117.405 76.312 117.534 76.0009 117.921C75.7767 118.216 75.5491 118.497 75.3284 118.804C71.1018 124.639 66.1924 130.007 60.4515 134.771C56.422 138.125 51.8918 140.8 46.5624 141.978C38.977 143.664 32.042 142.775 26.0285 138.717C20.4902 134.944 17.101 129.907 15.0276 124.008C10.5595 111.247 10.6772 98.0442 13.3603 84.5964C13.5531 83.6484 13.8568 82.6982 14.2705 81.8013C14.8774 80.4942 16.047 79.9191 17.319 80.1441C18.4766 80.3583 19.1299 81.1902 18.9844 82.5532C18.6468 85.5812 18.1798 88.6024 17.8571 91.6264C17.2376 97.295 16.8701 102.951 17.5843 108.539C18.3793 114.905 19.7282 121.136 22.7185 126.887C24.6505 130.59 27.6031 133.578 31.5669 135.579C37.8133 138.721 44.4393 138.395 50.9495 134.956C53.6193 133.552 56.0792 131.721 58.341 129.806C63.6254 125.302 68.0049 120.158 71.8403 114.649C72.3354 113.937 72.4976 113.411 71.9349 112.679C67.5835 107.086 65.7283 100.631 65.2581 93.7511C64.7589 86.4649 65.5946 79.2213 68.135 72.0316C69.3778 68.5131 71.0317 65.1604 73.4574 62.07C75.5869 59.3623 78.2068 57.1164 81.5416 55.5756C86.8448 53.108 91.8513 54.7745 93.6204 59.597C94.4522 61.8706 94.5308 64.2493 94.4789 66.6767C94.2127 80.2776 89.6127 93.1765 83.2792 105.795C82.3819 107.566 81.4331 109.323 80.4535 111.144C79.9539 112.077 80.1952 113.157 81.0829 113.734C82.2077 114.481 83.4721 115.094 84.8279 115.572C89.0249 117.014 93.4647 117.219 98.0391 116.794C102.784 116.352 107.145 114.771 111.156 112.304C115.91 109.39 120.341 106.108 124.439 102.474C133.072 94.8117 140.419 86.2803 147.183 77.3535C147.654 76.7309 148.075 76.2183 147.607 75.3643C145.255 71.222 144.716 66.6494 145.128 61.9327C146.046 51.302 149.506 41.2321 156.382 32.013C157.849 30.0481 159.68 28.248 161.556 26.5597C162.622 25.5985 164.058 24.828 165.464 24.3001C169.214 22.8825 172.241 24.0032 173.807 27.1146C175.025 29.5194 175.24 32.1098 175.121 34.7622C174.934 38.9496 173.743 43.0197 172.257 47.0585C169.078 55.6741 164.169 63.6079 158.478 71.2407C157.821 72.1201 156.759 73.6319 156.03 74.7233C155.481 75.5322 155.624 76.5422 156.412 77.1036C157.835 78.1295 159.588 78.7222 161.509 79.0492C164.935 79.6356 168.43 79.3483 171.912 78.7749C180.528 77.3652 188.309 73.8482 195.959 70.0214C210.882 62.5655 224.286 53.3093 236.375 42.4744C239.242 39.9004 242.203 37.4391 245.07 34.865C249.195 31.1542 252.444 26.8505 255.758 22.612C256.316 21.8971 256.948 21.2178 257.648 20.6167C258.544 19.8528 259.615 19.7453 260.664 20.2093C261.662 20.6595 262.09 21.6621 261.705 22.7857C261.512 23.3752 261.174 23.962 260.808 24.5013C256.684 30.2393 252.143 35.6749 246.546 40.4415C238.887 46.9739 231.427 53.715 223.106 59.6245C212.365 67.2715 200.886 73.8331 188.549 79.0937C182.895 81.5034 177.027 83.3499 170.856 84.0639C164.359 84.81 158.199 84.5554 152.991 81.3016L152.925 81.2918ZM74.7271 106.967C75.0803 107.631 76.1953 107.567 76.5611 106.848C77.4927 105.027 78.4277 103.218 79.2929 101.386C84.6726 90.0303 88.5695 78.4367 88.6103 66.3167C88.6192 64.5628 88.3029 62.7856 87.807 61.1116C87.3215 59.4763 86.1547 59.168 84.2696 59.8104C82.34 60.4648 80.8137 61.6733 79.4513 63.0171C77.2172 65.2149 75.6497 67.7584 74.5528 70.4518C69.9949 81.6017 69.3534 92.6688 73.1034 103.581C73.513 104.754 74.1126 105.862 74.7123 106.971L74.7271 106.967ZM151.357 70.0714C151.477 70.5218 152.179 70.5823 152.468 70.1738C155.365 65.9231 158.438 61.7354 161.096 57.3691C164.78 51.294 167.559 44.9369 168.891 38.2363C169.418 35.5577 169.604 32.8597 168.812 30.2582C168.267 28.4595 167.752 28.3216 165.92 29.4601C163.773 30.7932 162.272 32.6295 160.88 34.5191C154.879 42.6624 151.835 51.5453 150.759 60.867C150.41 63.9118 150.457 66.9472 151.36 70.0843L151.357 70.0714Z" fill="#E16ED9" fill-opacity="0.4"/>
</g>
<defs>
<clipPath id="clip0_2612_1178">
<rect width="265" height="83" fill="white" transform="translate(0 68.5195) rotate(-14.9846)"/>
</clipPath>
</defs>
</svg>
