<svg width="43" height="43" viewBox="0 0 43 43" fill="none" xmlns="http://www.w3.org/2000/svg">
<circle cx="21.5" cy="21.5" r="21.5" fill="#D6D0C2"/>
<g clip-path="url(#clip0_2397_211)">
<path d="M15.2342 10.6588L14.8751 13.0739L17.0094 14.2092L14.6009 14.6055L14.2044 17.0131L13.0687 14.8797L10.6539 15.2386C10.6115 15.0778 10.7187 15.0516 10.7923 14.9569C10.9905 14.7064 12.3007 13.5325 12.3095 13.4166L11.3072 11.3131L13.4115 12.315C13.5275 12.3063 14.7006 10.9965 14.9524 10.7984C15.0459 10.7236 15.0721 10.6177 15.2342 10.6601V10.6588Z" fill="black"/>
<path d="M14.6009 28.3947L17.0095 28.791L14.8752 29.9262L15.2342 32.3413C15.0734 32.3837 15.0472 32.2765 14.9525 32.203C14.7007 32.0049 13.5275 30.6951 13.4116 30.6864L11.3072 31.6883L12.3096 29.5848C12.3008 29.4689 10.9906 28.2962 10.7924 28.0445C10.7176 27.951 10.6116 27.9249 10.654 27.7629L13.0688 28.1218L14.2045 25.9883L14.6009 28.3959V28.3947Z" fill="black"/>
<path d="M31.6866 11.3133L30.6843 13.4168C30.693 13.5327 32.0033 14.7054 32.2015 14.9571C32.2763 15.0506 32.3823 15.0768 32.3399 15.2388L29.9251 14.8799L28.8816 17.0133L28.3942 14.6057L25.9856 14.2094L28.1199 13.0741L27.7609 10.659C27.9217 10.6167 27.9479 10.7238 28.0426 10.7973C28.2944 10.9955 29.4675 12.3052 29.5835 12.314L31.6879 11.312L31.6866 11.3133Z" fill="black"/>
<path d="M29.9251 28.1201L32.3399 27.7612C32.3823 27.9219 32.2751 27.9481 32.2015 28.0428C32.0033 28.2945 30.693 29.4672 30.6843 29.5831L31.6866 31.6867L29.5823 30.6847C29.4663 30.6934 28.2932 32.0032 28.0414 32.2013C27.9479 32.2761 27.9217 32.382 27.7596 32.3397L28.1187 29.9245L25.9844 28.7893L28.3929 28.393L28.7894 25.9854L29.9251 28.1188V28.1201Z" fill="black"/>
<path d="M33.6501 20.6122C33.8733 20.9425 35.9502 21.335 35.9876 21.4546C36.0475 21.6466 35.8817 21.5793 35.7819 21.6179C35.0925 21.8808 34.2635 21.9618 33.6501 22.388V24.6785L32.1841 22.8217L29.9114 23.4635L31.2254 21.4596L29.9114 19.5393L32.1841 20.181L33.6501 18.3242V20.6147V20.6122Z" fill="black"/>
<path d="M20.6099 9.34883C20.949 9.12451 21.333 7.04837 21.4527 7.01223C21.6421 6.9549 21.5811 7.11192 21.616 7.21785C21.8503 7.91696 21.9775 8.73196 22.3864 9.34883H24.6765L22.8202 10.8143L23.461 13.0874L21.5412 11.7739L19.5378 13.0874L20.1786 10.8143L18.3223 9.34883H20.6124H20.6099Z" fill="black"/>
<path d="M18.3196 33.6497L20.1759 32.1842L19.5351 29.9111L21.5385 31.2246L23.4584 29.9111L22.8176 32.1842L24.6739 33.6497H22.3838C22.0447 33.874 21.6607 35.9502 21.541 35.9863C21.3515 36.0436 21.4126 35.8866 21.3777 35.7807C21.1433 35.0816 21.0162 34.2666 20.6073 33.6497H18.3171H18.3196Z" fill="black"/>
<path d="M9.34504 18.3213L10.8136 20.1781L13.0851 19.5363L11.7711 21.4567L13.0851 23.4606L10.8136 22.8188L9.34504 24.6756V22.3851L7.00754 21.5452C6.9664 21.3283 7.10727 21.4343 7.2282 21.3956C7.93008 21.1701 8.7267 20.9931 9.34504 20.6118V18.3213Z" fill="black"/>
</g>
<defs>
<clipPath id="clip0_2397_211">
<rect width="29" height="29" fill="white" transform="translate(7 7)"/>
</clipPath>
</defs>
</svg>
