<svg width="160" height="227" viewBox="0 0 160 227" fill="none" xmlns="http://www.w3.org/2000/svg">
<g clip-path="url(#clip0_2611_858)">
<path d="M170.941 162.744C169.181 162.413 167.619 163.904 167.918 165.693C168.251 167.748 168.55 169.637 168.849 171.526C171.871 190.945 157.322 221.731 131.81 226.436C125.864 227.53 119.719 227 113.972 225.111C110.584 223.984 107.262 222.725 104.04 221.201C87.1316 213.148 77.9633 199.627 76.236 181.036C76.1031 179.678 74.7744 178.816 73.5121 179.214C69.5259 180.506 65.6393 181.964 61.6199 182.627C44.9776 185.411 29.4978 181.434 16.0776 171.691C2.0263 161.518 -2.42495 146.904 1.19584 130.268C4.68376 114.196 14.9814 103.326 29.4646 96.0688C30.3283 95.638 31.192 95.2072 32.1221 94.7764C33.3511 94.1799 33.6501 92.5893 32.72 91.5951C23.4853 81.7861 19.7649 70.287 21.9905 56.9983C25.5116 36.0547 37.6363 22.3021 57.7998 16.1383C70.5889 12.228 82.182 16.1383 92.0479 24.7213C95.0707 27.3392 97.5953 30.5205 100.253 33.7018C101.382 35.0274 103.508 34.7623 104.239 33.1716C104.239 33.1716 104.239 33.1716 104.239 33.1385C112.643 15.3099 126.229 4.17527 145.862 0.563153C164.264 -2.85013 183.564 9.67629 187.55 30.2554C189.743 41.7214 187.451 52.4252 182.535 62.7645C182.468 62.9302 182.368 63.0959 182.302 63.2284C180.807 66.3434 183.166 69.8893 186.587 69.7899C189.643 69.6905 192.666 69.6573 195.556 70.1544C219.872 74.3299 239.072 99.8798 227.579 129.009C220.204 147.699 205.123 157.773 186.155 162.545C181.139 163.804 176.024 163.738 170.941 162.744ZM162.504 101.007C162.836 89.408 159.082 81.7861 149.615 73.0706C143.104 67.0725 135.099 62.5656 125.864 62.4662C106.896 62.2674 90.6527 68.63 78.6277 83.9401C70.9543 93.716 65.9383 104.486 65.1411 117.112C64.4103 128.81 73.346 147.798 86.9323 152.338C92.0147 154.028 97.2299 155.387 102.445 156.713C107.262 157.939 112.112 157.475 116.796 156.116C120.649 155.023 124.535 153.83 128.123 152.14C149.814 141.8 162.271 125.198 162.537 101.007H162.504ZM146.327 156.282C129.651 166.886 112.344 173.647 92.214 167.582C90.4202 167.052 88.4935 168.311 88.4935 170.167C88.4935 174.044 88.3274 177.955 88.8921 181.732C90.1544 190.382 93.1109 198.302 100.319 203.968C105.468 208.011 111.115 211.027 117.36 213.115C126.562 216.163 134.733 214.208 141.643 207.978C152.904 197.805 158.119 185.079 155.794 169.802C155.262 166.29 154.033 162.876 153.369 159.364V159.297C152.738 156.116 149.084 154.559 146.327 156.315V156.282ZM174.396 90.1039C176.987 108.33 173.599 124.933 163.069 139.713C160.743 142.993 162.305 147.633 166.158 148.759C171.572 150.35 177.917 151.178 181.106 150.549C195.091 147.798 206.352 140.839 213.66 128.479C218.842 119.697 220.005 109.921 215.62 100.642C208.245 85.0999 193.397 79.864 179.113 83.2442C175.99 83.9732 173.931 86.9226 174.396 90.0707V90.1039ZM71.3197 157.873C56.8365 144.65 50.1596 128.677 53.0828 109.059C53.6143 105.58 50.525 102.465 47.0703 103.161C47.0703 103.161 47.0371 103.161 47.0039 103.161C39.7291 104.619 33.0854 107.601 27.2058 112.141C20.7282 117.178 15.978 123.441 13.7524 131.461C10.2977 143.755 14.4167 156.348 24.7808 162.678C34.547 168.609 45.2765 171.493 56.8365 170.399C61.8192 169.935 66.3037 168.311 70.4892 165.892C73.4124 164.202 73.8775 160.126 71.3861 157.839L71.3197 157.873ZM49.8274 89.176C54.3783 91.1643 59.66 89.3417 62.2511 85.0999C65.6725 79.4332 69.7584 74.0648 74.5086 69.1934C79.3917 64.1563 84.9724 60.1465 91.2839 57.0315C94.506 55.4408 95.6687 51.3979 93.7752 48.316C91.9814 45.3998 90.2209 42.583 88.3274 39.8988C86.6001 37.4465 84.4741 35.1268 82.0492 33.3705C74.4422 27.8032 66.2705 25.9474 57.1687 30.0234C44.4128 35.7233 36.8723 45.201 34.5138 58.9867C33.1186 67.1056 34.8792 74.3299 39.8287 80.7919C42.6523 84.4372 45.8412 87.4528 49.7942 89.176H49.8274ZM114.404 41.7877C113.009 45.6649 116.065 49.741 120.184 49.4427C121.712 49.3433 123.173 49.277 124.17 49.3102C136.195 49.8072 146.725 55.6728 156.956 62.3337C158.783 63.5267 160.212 65.3161 161.707 66.9068C162.902 68.1992 164.995 68.0667 165.959 66.5754C166.889 65.0842 167.719 63.7586 168.417 62.3668C170.144 58.9204 171.838 55.4408 173.233 51.8618C175.326 46.5265 175.99 40.9261 175.559 35.1931C174.462 20.1481 160.909 9.9414 146.16 13.0896C131.312 16.2709 119.752 26.7759 114.371 41.7214L114.404 41.7877Z" fill="#E1916E" fill-opacity="0.4"/>
</g>
<defs>
<clipPath id="clip0_2611_858">
<rect width="231" height="227" fill="white"/>
</clipPath>
</defs>
</svg>
