<svg width="149" height="289" viewBox="0 0 149 289" fill="none" xmlns="http://www.w3.org/2000/svg">
<g clip-path="url(#clip0_2611_872)">
<path d="M14.8218 83.5169C16.1532 84.853 15.753 87.1327 14.023 87.9025C12.3542 88.6539 10.7466 89.3871 9.15228 90.2097C0.284431 94.8034 -6.62785 101.307 -9.6526 111.104C-14.0057 125.165 -5.14344 140.095 11.3914 139.4C15.2198 139.231 19.0247 138.535 22.7733 137.83C25.2944 137.344 27.4621 139.697 26.7361 142.181C23.3621 153.802 19.9056 165.729 16.3519 178.044C15.9938 179.257 14.298 179.337 13.8668 178.159C10.9835 170.632 7.06153 163.735 1.87452 157.602C-1.05354 154.129 -4.38985 151.164 -8.50464 149.166C-16.6829 145.206 -25.1528 148.854 -27.558 157.6C-28.7852 162.113 -28.2737 166.467 -26.7993 170.788C-24.2851 178.105 -20.1187 184.436 -14.9371 190.103C-8.80652 196.808 -1.79824 202.477 5.83648 207.385L5.86461 207.39C7.61106 208.509 8.49462 210.579 8.11076 212.6C7.35637 216.733 6.58372 220.804 6.01294 224.881C4.62625 234.763 3.38021 244.669 2.19044 254.585C1.84198 257.396 1.74177 260.28 1.67955 263.112C1.65414 264.413 1.79752 265.744 2.10132 266.986C2.75035 269.566 4.52189 271.038 6.82179 271.151C8.98103 271.24 10.949 270.106 11.6419 267.646C12.4602 264.801 12.8334 261.85 13.1784 258.893C14.0144 251.323 14.7329 243.761 15.5126 236.18C15.557 235.927 15.6015 235.674 15.6228 235.388C15.8451 234.121 17.0174 233.224 18.3164 233.423C35.7858 236.49 52.6353 234.168 68.9319 227.397C73.5647 225.454 77.8461 222.869 81.3623 219.193C88.2525 211.989 87.196 202.81 78.8477 197.341C72.9462 193.462 66.3057 192.47 59.3817 192.763C46.8209 193.285 35.4262 197.407 24.7581 203.831C23.493 204.595 21.9484 203.483 22.2897 202.034C26.8027 183.099 31.2549 164.675 36.8969 146.575C37.3557 145.118 39.4537 145.226 39.7693 146.732C40.8921 152.064 42.7262 157.144 45.6669 161.866C48.9637 167.203 53.5086 171.047 59.3394 173.347C65.3622 175.71 71.1388 174.519 75.6783 169.804C80.9568 164.348 82.599 157.47 83.0613 150.212C83.1905 148.32 83.1509 146.398 83.093 144.415C83.0538 142.986 84.7606 142.184 85.8368 143.156L85.865 143.161C90.9846 147.86 96.6612 151.7 103.209 154.213C116.739 159.402 128.822 151.195 128.962 136.685C129.059 126.548 124.41 118.508 117.231 111.996C113.126 108.288 108.187 105.535 103.58 102.376C103.477 102.3 103.398 102.257 103.295 102.181C102.198 101.495 102.216 99.903 103.311 99.2828C103.957 98.9031 104.599 98.5516 105.213 98.1951C117.192 91.0724 124.444 80.6538 126.934 66.9624C127.063 66.2306 127.191 65.4989 127.202 64.7755C127.978 50.6091 117.786 41.7701 104.176 44.632C97.9148 45.9409 92.431 49.0978 86.9289 52.1936C86.8015 52.2582 86.6692 52.3511 86.5419 52.4157C85.1495 53.2447 83.3931 52.1821 83.4778 50.5433C83.7216 45.19 84.3741 39.8214 84.0256 34.5381C83.6167 28.1128 80.8869 22.3535 76.5431 17.5294C68.73 8.84695 58.1927 9.40514 51.4284 18.8649C47.3547 24.5613 45.1844 31.1431 43.6512 37.8947C43.295 39.4278 43.0233 40.9758 42.7516 42.5237C42.3366 44.8878 39.4038 45.7365 37.804 43.9471C35.0467 40.823 31.4366 36.94 28.912 35.1332C25.202 32.4802 21.1667 30.5243 16.6094 29.7243C4.85063 27.6601 -4.95563 35.9476 -4.97559 47.9549C-4.99323 52.6806 -3.74045 57.1072 -1.79122 61.366C2.18171 69.9545 8.33888 76.8377 14.926 83.4191L14.8218 83.5169ZM79.1542 78.4767C77.6617 76.2419 78.139 73.1924 80.2107 71.4673C82.3204 69.6908 84.3591 67.9889 86.3696 66.282C91.5067 61.9617 97.3844 58.8739 103.502 56.2344C105.949 55.1842 108.47 54.6984 111.122 55.2801C114.553 56.0564 116.196 57.7663 116.456 61.2355C116.525 62.0018 116.476 62.7765 116.399 63.5463C115.574 70.8865 112.692 77.2273 107.72 82.5919C102.046 88.6457 94.7013 91.9982 87.2502 95.1289C85.4358 95.8838 84.171 94.9945 84.0139 93.0812C83.6142 87.76 82.093 82.8801 79.1261 78.4717L79.1542 78.4767ZM79.2987 119.611C77.3344 117.091 77.219 113.618 78.9889 110.97C79.8498 109.699 80.6546 108.419 81.4311 107.134C82.2127 105.82 83.1026 105.541 84.3654 106.111C91.6249 109.358 99.1717 111.96 105.704 116.704C110.179 119.955 113.907 123.83 116.366 128.816C117.879 131.925 118.455 135.42 117.801 138.816C116.818 143.75 113.867 146.191 109.457 144.72C105.678 143.448 101.918 141.743 98.6267 139.512C90.7749 134.188 84.9549 126.871 79.2987 119.611ZM1.25128 113.744C1.74232 111.277 4.19637 107.704 7.55597 104.754C13.3857 99.6273 20.4582 96.8362 27.7462 94.6342C30.3779 93.8487 32.1377 95.057 32.6544 97.7297C33.5336 102.468 35.195 106.879 38.0159 110.798C38.9253 112.06 38.9029 113.013 38.0138 114.279C31.2529 123.884 21.8738 128.417 10.3017 128.097C2.97364 127.884 -0.468437 123.044 1.25128 113.744ZM54.9867 109.106C50.466 108.428 46.9856 105.293 45.1831 100.364C42.6875 93.6016 42.9764 86.8347 45.8185 80.2258C47.0356 77.4222 49.0457 75.2221 52.0412 74.1813C52.9973 73.8559 54.2148 73.6925 55.1135 74.0244C57.4306 74.8663 59.7841 75.8307 61.8814 77.0982C68.5889 81.1768 72.7564 86.8403 72.6754 95.0654C72.5694 105.085 65.6583 110.921 55.0198 109.083L54.9867 109.106ZM32.9585 81.1305C32.3656 82.3609 30.7941 82.7233 29.7262 81.8686C22.9399 76.5867 17.0067 70.4101 12.1283 63.3453C10.0742 60.3447 8.37065 56.9994 7.08559 53.5825C6.29631 51.4712 6.16846 48.8958 6.4793 46.6294C7.13368 41.5802 10.6461 39.4117 15.4737 40.9845C17.9131 41.7898 20.4157 42.8964 22.4305 44.4686C28.9454 49.6448 33.777 56.1502 37.5365 62.8156C39.0394 65.4874 39.1049 68.7482 37.724 71.4939C36.0656 74.8292 34.5311 77.9542 32.9635 81.1024L32.9585 81.1305ZM60.8963 120.704C64.1788 120.671 67.1091 122.81 68.068 125.937C69.9907 132.164 71.6917 138.497 72.0049 145.138C72.2488 150.025 72.1171 154.905 70.0395 159.472C67.7174 164.606 64.8656 165.324 60.141 162.173C57.2837 160.279 55.4151 157.543 53.8822 154.547C49.6398 146.172 49.2718 137.201 50.1445 128.1C50.192 127.499 50.2676 126.903 50.3714 126.312C50.8685 123.15 53.575 120.782 56.7732 120.734C58.1398 120.713 59.4734 120.715 60.84 120.694L60.8963 120.704ZM21.5119 223.975C19.5298 224.034 18.5185 221.535 20.0413 220.294C20.0413 220.294 20.0413 220.294 20.0743 220.271C28.7896 213.242 38.4196 207.941 49.3556 205.277C54.6871 203.979 60.1414 203.138 65.5988 204.096C68.1025 204.535 70.6248 205.529 72.8776 206.737C75.3638 208.102 75.4776 209.601 73.5119 211.548C72.1761 212.88 70.6898 214.244 68.9978 214.962C63.7664 217.177 58.5201 219.477 53.0597 221.013C42.7461 223.931 32.0989 223.629 21.5119 223.975ZM57.2072 62.7583C54.4583 61.8986 52.6411 59.2007 52.9713 56.3285C52.9713 56.3285 52.9763 56.3003 52.9812 56.2722C53.5987 50.6073 54.0192 44.9078 54.9792 39.2741C55.8241 34.4614 57.4748 29.8482 60.2527 25.7521C62.9497 21.7868 65.3404 21.7133 68.3977 25.4412C71.4551 29.1692 72.8633 33.536 73.0145 38.2914C73.2292 45.9881 71.4931 53.4004 69.4756 60.7633C69.4756 60.7633 69.4707 60.7915 69.4657 60.8196C68.6326 63.7486 65.5052 65.3754 62.6206 64.4629C60.8084 63.8837 59.0475 63.3425 57.2635 62.7682L57.2072 62.7583ZM7.6532 191.255C8.14101 192.936 6.22286 194.282 4.84211 193.227C-0.434135 189.255 -5.38309 184.905 -9.31862 179.572C-11.9638 175.974 -14.032 171.898 -16.0588 167.915C-16.8758 166.292 -17.215 164.26 -17.2364 162.4C-17.2989 158.791 -15.2549 157.554 -12.1859 159.399C-10.2707 160.547 -8.50404 162.047 -6.99212 163.676C0.310874 171.63 4.65184 181.096 7.68133 191.26L7.6532 191.255Z" fill="#E5BF42" fill-opacity="0.4"/>
</g>
<defs>
<clipPath id="clip0_2611_872">
<rect width="150.889" height="266" fill="white" transform="matrix(-0.984939 -0.172901 -0.172901 0.984939 148.608 26.0898)"/>
</clipPath>
</defs>
</svg>
