<svg width="164" height="343" viewBox="0 0 164 343" fill="none" xmlns="http://www.w3.org/2000/svg">
<g clip-path="url(#clip0_2612_1187)">
<path d="M72.5145 215.004C70.2856 215.114 68.8299 217.378 69.7141 219.463C70.7159 221.86 71.6292 224.065 72.5424 226.271C81.8697 248.959 73.2316 290.559 43.7074 303.698C36.8252 306.757 29.2278 307.903 21.7167 307.284C17.2844 306.903 12.8939 306.342 8.54673 305.43C-14.2804 300.58 -29.3293 286.84 -36.8459 264.78C-37.4032 263.17 -39.2639 262.511 -40.6766 263.361C-45.1272 266.09 -49.4087 268.992 -54.0833 270.967C-73.4266 279.191 -93.3345 278.872 -112.431 270.955C-132.417 262.699 -142.072 246.259 -142.541 225.014C-143.006 204.493 -133.706 188.302 -118.283 175.277C-117.363 174.503 -116.443 173.729 -115.442 172.935C-114.128 171.853 -114.23 169.836 -115.646 168.9C-129.692 159.684 -137.554 146.811 -138.736 130.035C-140.582 103.592 -129.911 83.3704 -107.289 70.0186C-92.9415 61.5489 -77.7599 62.9191 -63.307 70.4631C-58.8821 72.7602 -54.8963 75.8862 -50.7495 78.9734C-48.9949 80.2533 -46.4975 79.3125 -46.0766 77.1692C-46.0766 77.1692 -46.0766 77.1692 -46.0862 77.129C-41.11 53.0441 -27.9046 35.5745 -5.18218 25.4743C16.1097 15.9733 43.1389 25.5565 53.9713 49.3718C59.9722 62.6492 60.3195 76.3073 57.3822 90.2871C57.3501 90.5076 57.2778 90.7377 57.236 90.9179C56.3345 95.1337 60.2255 98.7504 64.3403 97.6335C68.0125 96.623 71.6639 95.7026 75.309 95.4644C105.976 93.4519 136.685 118.87 131.264 157.569C127.787 182.4 112.462 199.018 90.8822 210.332C85.1748 213.321 78.9599 214.73 72.5145 215.004ZM44.2816 142.532C41.2996 128.359 34.5296 120.201 20.5207 112.381C10.8853 106.997 -0.125346 103.858 -11.3385 106.426C-34.3683 111.708 -52.1846 124.16 -62.2808 146.242C-68.7216 160.341 -71.6539 174.873 -68.9354 190.428C-66.4071 204.838 -50.0444 225.282 -32.2653 226.836C-25.6169 227.407 -18.9042 227.538 -12.2012 227.628C-6.00995 227.714 -0.271626 225.738 5.00447 222.726C9.35215 220.276 13.711 217.697 17.5628 214.601C40.8166 195.737 51.0588 171.96 44.3219 142.523L44.2816 142.532ZM40.818 214.328C23.7164 232.054 4.7287 245.298 -21.4207 243.799C-23.7478 243.678 -25.7138 245.767 -25.1723 248.019C-24.041 252.725 -23.1011 257.519 -21.3149 261.94C-17.2624 272.069 -11.3708 280.821 -0.98725 285.599C6.4282 289.007 14.1473 291.022 22.3199 291.738C34.3534 292.759 43.6797 288.006 50.2298 278.433C60.8995 262.807 63.5027 245.845 56.2289 227.981C54.5603 223.872 52.0757 220.088 50.2462 216.018L50.2268 215.937C48.5342 212.26 43.6543 211.434 40.8276 214.368L40.818 214.328ZM55.503 125.838C63.9592 147.204 64.7001 168.34 56.2595 189.344C54.4007 194.002 57.6452 199.178 62.6408 199.424C69.6625 199.778 77.5883 198.936 81.2668 197.243C97.4014 189.833 109.009 178.108 114.253 160.978C117.967 148.812 116.522 136.608 108.504 126.624C95.0381 109.908 75.5271 107.877 59.2142 116.139C55.6452 117.933 54.0115 122.112 55.4933 125.797L55.503 125.838ZM-49.559 238.099C-70.9577 226.268 -83.7048 208.827 -85.8888 184.166C-86.2604 179.788 -90.9108 176.907 -94.8918 178.758C-94.8918 178.758 -94.932 178.767 -94.9722 178.777C-103.357 182.665 -110.533 188.219 -116.329 195.441C-122.705 203.441 -126.63 212.425 -126.986 222.806C-127.582 238.733 -118.919 252.817 -104.52 257.481C-90.9615 261.837 -77.1257 262.212 -63.4445 257.519C-57.5453 255.505 -52.5879 252.228 -48.2247 248.073C-45.1776 245.171 -45.8037 240.089 -49.4882 238.039L-49.559 238.099ZM-95.6331 160.983C-89.5414 162.071 -83.6765 158.321 -81.7762 152.418C-79.2859 144.545 -75.904 136.839 -71.5724 129.544C-67.1282 122.009 -61.5395 115.517 -54.8045 109.899C-51.3663 107.03 -51.1379 101.785 -54.3303 98.5961C-57.3537 95.5791 -60.3078 92.6731 -63.3842 89.9667C-66.1917 87.4935 -69.4434 85.2972 -72.8927 83.8716C-83.73 79.3298 -94.1683 79.4569 -104.002 87.0541C-117.788 97.6859 -124.155 111.384 -122.988 128.802C-122.309 139.062 -118.069 147.317 -110.189 153.719C-105.706 157.32 -100.964 160.052 -95.6734 160.992L-95.6331 160.983ZM-31.2519 84.6664C-31.8103 89.7783 -26.9197 93.8354 -22.0181 92.274C-20.1965 91.7085 -18.4456 91.2024 -17.2291 90.9525C-2.52048 88.0544 11.9442 92.107 26.2788 97.212C28.8396 98.1279 31.0917 99.8838 33.3662 101.379C35.1916 102.599 37.6875 101.829 38.4191 99.7388C39.1104 97.6581 39.7294 95.8076 40.1681 93.9152C41.2545 89.2295 42.291 84.5132 42.9364 79.7633C43.9141 72.6787 43.0846 65.6883 40.8887 58.8561C35.1712 40.9159 15.7788 32.4747 -1.16504 40.59C-18.2199 48.7746 -29.155 64.89 -31.3114 84.5957L-31.2519 84.6664Z" fill="#E16ED9" fill-opacity="0.4"/>
</g>
<defs>
<clipPath id="clip0_2612_1187">
<rect width="287.737" height="283.351" fill="white" transform="translate(-182 67.2617) rotate(-13.5185)"/>
</clipPath>
</defs>
</svg>
