<svg width="69" height="102" viewBox="0 0 69 102" fill="none" xmlns="http://www.w3.org/2000/svg">
<g clip-path="url(#clip0_2927_3419)">
<path d="M47.086 29.3729C46.6177 29.8429 46.7585 30.6447 47.367 30.9155C47.954 31.1798 48.5194 31.4377 49.0802 31.727C52.1993 33.3428 54.6306 35.6303 55.6945 39.0763C57.2256 44.0219 54.1085 49.2733 48.2926 49.0289C46.946 48.9693 45.6077 48.7247 44.2892 48.4765C43.4025 48.3057 42.64 49.1334 42.8954 50.0069C44.0821 54.0946 45.2979 58.2895 46.5479 62.6211C46.6738 63.048 47.2703 63.076 47.4219 62.6616C48.4361 60.0141 49.8156 57.5882 51.64 55.4312C52.6699 54.2096 53.8434 53.1668 55.2907 52.4638C58.1673 51.071 61.1464 52.3542 61.9924 55.4302C62.4241 57.0178 62.2442 58.5494 61.7256 60.069C60.8412 62.6427 59.3758 64.8694 57.5532 66.8628C55.3969 69.221 52.9318 71.2149 50.2465 72.9415L50.2366 72.9432C49.6223 73.3368 49.3115 74.0648 49.4465 74.7758C49.7119 76.2293 49.9836 77.6612 50.1844 79.0954C50.6721 82.571 51.1104 86.0554 51.5289 89.5432C51.6515 90.532 51.6867 91.5462 51.7086 92.5424C51.7175 93 51.6671 93.468 51.5602 93.9052C51.332 94.8126 50.7088 95.3302 49.8999 95.3701C49.1404 95.4014 48.4482 95.0025 48.2045 94.1371C47.9167 93.1366 47.7854 92.0984 47.6641 91.0585C47.37 88.3957 47.1173 85.7359 46.8431 83.0697C46.8274 82.9807 46.8118 82.8916 46.8043 82.7908C46.7261 82.3454 46.3138 82.03 45.8569 82.1C39.7123 83.1786 33.7858 82.3618 28.0537 79.9802C26.4242 79.2969 24.9183 78.3878 23.6815 77.0946C21.258 74.5608 21.6296 71.3322 24.566 69.4086C26.6418 68.0442 28.9774 67.6954 31.4128 67.7985C35.8309 67.9821 39.8388 69.4317 43.5911 71.6914C44.0361 71.9602 44.5794 71.5689 44.4593 71.0594C42.8719 64.3991 41.306 57.9188 39.3215 51.5527C39.1601 51.0402 38.4222 51.0779 38.3112 51.6076C37.9162 53.4831 37.2711 55.2699 36.2368 56.931C35.0772 58.8081 33.4786 60.1602 31.4277 60.9692C29.3093 61.8003 27.2775 61.3814 25.6808 59.7229C23.8242 57.8039 23.2465 55.3848 23.0839 52.8317C23.0385 52.1662 23.0524 51.4902 23.0728 50.7928C23.0866 50.2903 22.4862 50.008 22.1077 50.3499L22.0978 50.3517C20.2971 52.0045 18.3004 53.3551 15.9975 54.2389C11.2385 56.0642 6.98856 53.1775 6.93919 48.0738C6.90487 44.5083 8.54014 41.6804 11.0654 39.3901C12.5091 38.0857 14.2464 37.1174 15.8669 36.0064C15.903 35.9796 15.931 35.9645 15.9671 35.9378C16.3531 35.6965 16.3466 35.1364 15.9615 34.9183C15.7341 34.7848 15.5084 34.6611 15.2926 34.5357C11.0789 32.0305 8.52833 28.3659 7.65236 23.5502C7.60718 23.2928 7.562 23.0354 7.55813 22.781C7.2852 17.7982 10.8702 14.6892 15.6572 15.6958C17.8595 16.1562 19.7883 17.2666 21.7236 18.3555C21.7684 18.3782 21.8149 18.4109 21.8597 18.4336C22.3495 18.7252 22.9672 18.3515 22.9374 17.775C22.8517 15.8921 22.6222 14.0038 22.7448 12.1455C22.8886 9.88549 23.8487 7.85976 25.3766 6.16296C28.1248 3.10905 31.831 3.30538 34.2103 6.6327C35.6431 8.63631 36.4065 10.9513 36.9458 13.3261C37.0711 13.8654 37.1666 14.4098 37.2622 14.9543C37.4082 15.7858 38.4397 16.0843 39.0024 15.4549C39.9723 14.3561 41.242 12.9903 42.13 12.3548C43.435 11.4216 44.8543 10.7337 46.4573 10.4523C50.5932 9.72626 54.0424 12.6412 54.0494 16.8646C54.0556 18.5268 53.615 20.0838 52.9294 21.5817C51.532 24.6026 49.3663 27.0236 47.0494 29.3385L47.086 29.3729ZM24.4582 27.6001C24.9832 26.8141 24.8153 25.7415 24.0866 25.1347C23.3445 24.5098 22.6275 23.9112 21.9203 23.3108C20.1134 21.7913 18.046 20.7052 15.8942 19.7768C15.0338 19.4074 14.147 19.2365 13.214 19.4411C12.0073 19.7142 11.4296 20.3156 11.3378 21.5358C11.3137 21.8054 11.3309 22.0779 11.3581 22.3486C11.6481 24.9304 12.6618 27.1607 14.4107 29.0476C16.4063 31.1769 18.9898 32.3561 21.6106 33.4573C22.2487 33.7228 22.6936 33.41 22.7489 32.737C22.8895 30.8654 23.4245 29.149 24.4681 27.5984L24.4582 27.6001ZM24.4074 42.0685C25.0983 41.1819 25.1389 39.9605 24.5164 39.0289C24.2135 38.5821 23.9305 38.1318 23.6573 37.6797C23.3824 37.2177 23.0694 37.1196 22.6252 37.32C20.0719 38.4622 17.4174 39.3771 15.1196 41.0458C13.5457 42.1895 12.2346 43.5523 11.3695 45.3063C10.8373 46.3997 10.635 47.6291 10.865 48.8235C11.2104 50.5588 12.2485 51.4174 13.7999 50.9002C15.1288 50.4526 16.4515 49.853 17.6091 49.0682C20.3708 47.1956 22.4179 44.6219 24.4074 42.0685ZM51.8592 40.0046C51.6865 39.137 50.8233 37.8803 49.6417 36.8428C47.5912 35.0395 45.1035 34.0578 42.5401 33.2833C41.6144 33.007 40.9955 33.432 40.8137 34.372C40.5045 36.0386 39.9201 37.5902 38.9279 38.9685C38.608 39.4124 38.6159 39.7478 38.9286 40.1929C41.3067 43.5714 44.6056 45.1658 48.6759 45.0533C51.2534 44.9784 52.4641 43.2761 51.8592 40.0046ZM32.9587 38.3735C34.5488 38.1351 35.773 37.0325 36.407 35.2987C37.2848 32.9201 37.1831 30.5399 36.1835 28.2153C35.7554 27.2292 35.0484 26.4554 33.9947 26.0893C33.6585 25.9749 33.2302 25.9174 32.9141 26.0341C32.0991 26.3302 31.2713 26.6694 30.5336 27.1153C28.1744 28.5498 26.7085 30.5419 26.737 33.4349C26.7743 36.9591 29.2052 39.012 32.9471 38.3653L32.9587 38.3735ZM40.7067 28.5336C40.9153 28.9663 41.4681 29.0938 41.8437 28.7932C44.2306 26.9354 46.3175 24.7628 48.0334 22.2779C48.7559 21.2225 49.3551 20.0458 49.8071 18.844C50.0847 18.1014 50.1297 17.1955 50.0204 16.3984C49.7902 14.6224 48.5547 13.8597 46.8567 14.4129C45.9987 14.6962 45.1185 15.0854 44.4098 15.6384C42.1183 17.459 40.4189 19.7472 39.0965 22.0916C38.5679 23.0313 38.5449 24.1783 39.0306 25.1441C39.6139 26.3172 40.1536 27.4163 40.705 28.5237L40.7067 28.5336ZM30.8801 42.4527C29.7255 42.4411 28.6949 43.1935 28.3576 44.2935C27.6813 46.4837 27.083 48.7112 26.9728 51.0469C26.8871 52.7661 26.9334 54.4825 27.6642 56.0889C28.4809 57.8946 29.484 58.1471 31.1458 57.039C32.1508 56.3728 32.808 55.4105 33.3472 54.3566C34.8394 51.4109 34.9688 48.2555 34.6619 45.0542C34.6452 44.8429 34.6186 44.6332 34.5821 44.4254C34.4072 43.3132 33.4552 42.4803 32.3303 42.4634C31.8497 42.456 31.3806 42.4567 30.8999 42.4492L30.8801 42.4527ZM44.7329 78.7768C45.4301 78.7973 45.7858 77.9185 45.2502 77.4819C45.2502 77.4819 45.2502 77.4819 45.2385 77.4737C42.1731 75.0016 38.7859 73.137 34.9394 72.1999C33.0641 71.7434 31.1456 71.4475 29.2261 71.7845C28.3455 71.9391 27.4583 72.2887 26.6659 72.7135C25.7914 73.1936 25.7514 73.721 26.4428 74.4058C26.9126 74.8743 27.4354 75.354 28.0305 75.6067C29.8706 76.3857 31.7159 77.1945 33.6365 77.7349C37.2641 78.7614 41.0091 78.655 44.7329 78.7768ZM32.1777 22.0715C33.1445 21.7691 33.7837 20.8201 33.6676 19.8099C33.6676 19.8099 33.6658 19.8 33.6641 19.7901C33.4469 17.7975 33.299 15.7928 32.9613 13.8113C32.6642 12.1185 32.0836 10.4959 31.1065 9.05514C30.1579 7.66041 29.317 7.63455 28.2416 8.9458C27.1662 10.257 26.6709 11.793 26.6177 13.4656C26.5422 16.1728 27.1529 18.78 27.8625 21.3697C27.8625 21.3697 27.8642 21.3796 27.866 21.3895C28.159 22.4198 29.259 22.992 30.2736 22.671C30.911 22.4673 31.5304 22.2769 32.1579 22.0749L32.1777 22.0715ZM49.6075 67.2678C49.4359 67.8592 50.1106 68.3326 50.5962 67.9616C52.452 66.5644 54.1928 65.0343 55.577 63.1586C56.5074 61.8932 57.2349 60.4594 57.9478 59.0587C58.2351 58.4878 58.3544 57.773 58.3619 57.1186C58.3839 55.8494 57.665 55.4144 56.5855 56.0631C55.9119 56.467 55.2905 56.9945 54.7587 57.5675C52.19 60.3654 50.6631 63.6947 49.5976 67.2696L49.6075 67.2678Z" fill="#E5BF42" fill-opacity="0.4"/>
</g>
<defs>
<clipPath id="clip0_2927_3419">
<rect width="53.0727" height="93.5611" fill="white" transform="translate(0.0292969 9.17578) rotate(-9.95655)"/>
</clipPath>
</defs>
</svg>
