<svg width="18" height="13" viewBox="0 0 18 13" fill="none" xmlns="http://www.w3.org/2000/svg">
<path d="M4.2004 11.9989C5.96793 11.9989 7.4008 10.5919 7.4008 8.85636C7.4008 7.12081 5.96793 5.71387 4.2004 5.71387C2.43287 5.71387 1 7.12081 1 8.85636C1 10.5919 2.43287 11.9989 4.2004 11.9989Z" stroke="#1F1F1F" stroke-linecap="round" stroke-linejoin="round"/>
<path d="M13.7995 11.9998C15.5671 11.9998 16.9999 10.5929 16.9999 8.85734C16.9999 7.12179 15.5671 5.71484 13.7995 5.71484C12.032 5.71484 10.5991 7.12179 10.5991 8.85734C10.5991 10.5929 12.032 11.9998 13.7995 11.9998Z" stroke="#1F1F1F" stroke-linecap="round" stroke-linejoin="round"/>
<path d="M10.5976 8.85623C10.5976 8.43951 10.429 8.03986 10.1289 7.74519C9.82885 7.45053 9.42183 7.28499 8.99743 7.28499C8.57303 7.28499 8.16602 7.45053 7.86592 7.74519C7.56582 8.03986 7.39723 8.43951 7.39723 8.85623M1.39648 7.28499L3.39673 2.57125C3.9568 1.54994 4.51687 1 5.79703 1M16.5984 7.28499L14.5981 2.57125C14.0381 1.54994 13.398 1 12.1978 1" stroke="#1F1F1F" stroke-linecap="round" stroke-linejoin="round"/>
</svg>
