<svg width="43" height="43" viewBox="0 0 43 43" fill="none" xmlns="http://www.w3.org/2000/svg">
<circle cx="21.5" cy="21.5" r="21.5" fill="#D6D0C2"/>
<path d="M30.0676 14.6588C29.5493 14.1327 28.934 13.7153 28.2568 13.4307C27.5796 13.1461 26.8537 12.9997 26.1208 13C25.3878 13.0003 24.6621 13.1472 23.9851 13.4323C23.3081 13.7175 22.6931 14.1353 22.1752 14.6618L21.4992 15.3565L20.8288 14.6633L20.8245 14.6589C20.3065 14.133 19.6915 13.7158 19.0146 13.4312C18.3378 13.1466 17.6124 13.0001 16.8798 13.0001C16.1472 13.0001 15.4218 13.1466 14.7449 13.4312C14.0681 13.7158 13.4531 14.133 12.9351 14.6589L12.6339 14.9646C11.5877 16.0268 11 17.4673 11 18.9694C11 20.4715 11.5877 21.912 12.6339 22.9741L20.5823 31.0434L21.4799 31.9982L21.5013 31.9764L21.5245 32L22.3655 31.0992L30.3687 22.974C31.4133 21.911 32 20.4708 32 18.9693C32 17.4677 31.4133 16.0275 30.3687 14.9645L30.0676 14.6588ZM29.3823 21.9728L21.5013 29.9741L13.62 21.9728C12.8354 21.1762 12.3946 20.0958 12.3946 18.9693C12.3946 17.8427 12.8354 16.7623 13.62 15.9657L13.9212 15.66C14.7055 14.8638 15.7691 14.4163 16.8782 14.4159C17.9873 14.4155 19.0512 14.8621 19.836 15.6577L21.4962 17.3739L23.1643 15.66C23.5528 15.2655 24.0141 14.9527 24.5217 14.7392C25.0293 14.5257 25.5734 14.4159 26.1228 14.4159C26.6723 14.4159 27.2164 14.5257 27.724 14.7392C28.2316 14.9527 28.6928 15.2655 29.0814 15.66L29.3825 15.9657C30.166 16.7629 30.6059 17.8431 30.6059 18.9693C30.6059 20.0955 30.1658 21.1756 29.3823 21.9728Z" fill="#2E2E2E"/>
</svg>
