<svg width="216" height="410" viewBox="0 0 216 410" fill="none" xmlns="http://www.w3.org/2000/svg">
<g clip-path="url(#clip0_2611_864)">
<path d="M53.3491 153.102C54.0701 149.819 51.5796 146.7 48.2371 146.635C44.1736 146.569 40.2413 146.471 36.3417 146.372C27.0679 146.077 17.8268 145.748 8.55301 145.387C7.34053 145.355 6.09528 145.158 4.91558 144.862C1.31091 144.009 -0.262029 141.711 0.0656674 137.969C0.360594 134.489 1.93354 131.666 4.48957 129.467C9.5361 125.101 14.5171 120.571 19.8585 116.566C39.3893 101.893 59.051 87.3834 78.7128 72.8742C104.109 54.196 125.049 38.899 150.478 20.2208C150.609 20.1223 151.625 19.3345 152.772 18.481C154.476 17.168 154.542 14.6075 152.903 13.2288C152.313 12.7036 151.724 12.2112 151.167 11.6532C149.79 10.3073 148.316 8.92859 147.496 7.25446C145.628 3.34813 149.364 -0.853631 153.559 0.196809C155.296 0.623551 157 1.57551 158.474 2.59313C160.768 4.13596 162.898 5.87575 165.126 7.61554C166.044 8.33772 167.322 8.40337 168.305 7.77968C169.321 7.12315 170.271 6.49945 171.287 5.97423C174.4 4.30009 177.087 4.59553 178.693 6.72924C180.397 8.99425 180.069 11.3249 177.612 14.0823C177.448 14.2793 177.284 14.4434 177.12 14.6075C176.235 15.5267 176.301 16.9382 177.317 17.7589C219.753 52.1608 259.634 89.4842 300.072 126.151C311.181 136.229 322.486 146.11 333.661 156.154C336.184 158.419 338.511 160.947 340.805 163.475C342.607 165.477 343.721 167.808 342.574 170.598C341.427 173.388 339.035 174.471 336.315 174.34C332.514 174.176 328.745 173.749 325.01 173.126C317.112 171.813 302.136 169.285 295.32 168.202C293.256 167.873 291.257 169.252 290.929 171.32C290.929 171.32 290.929 171.32 290.929 171.353C285.358 206.149 279.722 240.977 274.249 275.806C271.89 290.775 269.727 305.809 267.925 320.877C266.188 335.254 265.205 349.698 263.566 364.076C262.223 375.729 260.453 387.35 258.749 398.97C258.487 400.809 257.602 402.647 256.652 404.255C254.26 408.326 250.885 410.722 245.838 409.836C230.797 407.242 215.756 404.583 200.649 402.187C176.53 398.347 152.445 394.473 128.261 390.961C114.497 388.958 100.636 387.678 86.8069 386.135C65.1134 383.706 43.3544 382.229 21.5298 381.704C19.9241 381.671 18.6788 381.868 17.6957 383.378C16.385 385.38 14.386 386.266 12.0266 385.544C9.50333 384.756 8.32362 382.754 8.15977 380.292C8.02869 377.994 7.99592 375.631 8.38916 373.366C12.4526 349.665 16.4833 325.965 20.8416 302.33C23.6926 286.869 26.9368 271.506 30.181 256.143C32.5732 244.917 35.2603 233.756 37.7835 222.595C40.4051 211.138 42.9939 199.682 45.6155 188.258C47.68 179.264 51.4485 162.424 53.4147 153.2L53.3491 153.102ZM74.8132 147.488C70.7498 147.324 67.1451 150.082 66.2276 154.053C64.8185 160.028 62.8851 168.464 61.7382 173.257C58.6578 186.42 55.4464 199.551 52.3988 212.714C48.2371 230.67 44.0753 248.626 40.1102 266.648C36.8988 281.19 33.7201 295.732 30.9019 310.339C27.8543 326.293 25.2 342.345 22.4473 358.364C22.0541 360.76 22.0541 363.255 22.0869 365.684C22.0869 367.588 22.9389 369.098 25.0361 369.558C26.6091 369.886 28.1493 370.608 29.7222 370.707C43.5838 371.659 57.4781 372.545 71.3397 373.431C73.6663 373.596 76.0257 373.694 78.4179 373.825C79.8925 373.891 81.2033 372.841 81.4655 371.396C82.9074 362.632 84.4475 353.9 85.7583 345.102C89.0353 322.78 92.1812 300.459 95.4909 278.137C96.048 274.362 96.8345 270.587 97.9486 266.943C98.4729 265.269 99.882 263.726 101.226 262.544C105.486 258.835 110.729 259.623 115.71 259.918C132.029 260.87 148.381 261.789 164.668 263.201C172.663 263.89 180.594 265.433 188.491 266.943C192.489 267.698 194.455 270.455 194.717 274.526C194.848 276.692 194.848 278.925 194.619 281.091C193.407 293.598 192.129 306.105 190.818 318.612C188.95 336.469 185.64 369.459 184.428 382.196C184.133 385.15 186.165 387.842 189.081 388.4C199.207 390.304 221.785 394.44 234.008 396.607C235.188 396.804 236.368 396.935 237.547 396.935C241.644 396.935 245.183 395.786 246.461 391.748C247.444 388.63 248.656 385.544 249.115 382.327C250.164 375.04 250.786 367.687 251.638 360.367C253.736 341.918 255.505 323.404 257.996 304.989C262.485 271.965 267.335 238.942 272.283 205.985C274.02 194.495 276.478 183.138 278.641 171.747C278.772 171.025 278.903 170.335 279.034 169.613C279.46 167.282 277.887 165.083 275.56 164.722C275.396 164.722 275.2 164.656 275.036 164.656C255.309 162.03 235.581 159.076 215.788 156.942C198.027 155.038 180.2 153.955 162.374 152.708C138.845 151.066 115.317 149.622 91.7552 148.178C86.1188 147.849 80.5152 147.62 74.7477 147.423L74.8132 147.488ZM310.689 152.806C263.992 110.395 219.065 66.3089 169.911 27.2128C167.191 25.0463 163.39 24.9478 160.571 26.9502C138.223 42.7396 50.5309 108.261 24.9706 128.285C22.5129 130.222 23.7909 134.194 26.9368 134.292C29.4601 134.358 31.9833 134.423 34.5066 134.456C64.3597 134.686 94.1801 136.36 123.968 138.461C140.975 139.643 158.015 140.168 174.99 141.514C198.65 143.385 222.309 145.223 245.838 148.112C262.682 150.18 293.092 155.137 308.428 157.664C311.181 158.124 312.786 154.71 310.755 152.839L310.689 152.806ZM172.991 380.85C176.53 347.039 180.037 313.458 183.576 279.647C183.805 277.382 182.134 275.379 179.906 275.215C157.426 273.443 135.175 271.933 112.826 271.637C109.975 271.604 107.517 273.705 107.124 276.528L93.5575 370.772C93.197 373.234 94.9338 375.532 97.3915 375.828C120.92 378.881 144.285 381.868 167.912 384.921C170.435 385.249 172.762 383.411 173.024 380.883L172.991 380.85Z" fill="#AF927D" fill-opacity="0.4"/>
<path d="M213.265 242.389C205.04 241.207 196.815 240.025 188.589 238.811C188.065 238.745 187.508 238.581 186.984 238.45C180.462 236.775 178.038 232.541 180.168 226.107C181.741 221.314 183.412 216.522 185.411 211.926C188.065 205.787 190.949 199.747 194.029 193.839C196.651 188.783 198.879 187.569 204.319 188.685C217.787 191.442 231.223 194.495 244.625 197.515C246.198 197.876 247.739 198.533 249.148 199.353C252.49 201.225 254.555 204.08 254.096 208.052C253.604 212.386 252.916 216.719 252.031 220.986C250.819 226.731 249.377 232.41 247.902 238.088C246.297 244.194 243.38 246.295 237.154 245.507C229.158 244.522 221.228 243.242 213.265 242.093C213.265 242.192 213.265 242.29 213.232 242.389H213.265ZM238.268 230.013C239.874 224.367 241.447 218.852 242.299 213.075C242.659 210.679 241.217 208.348 238.891 207.659C228.306 204.54 217.492 203.293 206.777 201.126C204.614 200.699 202.418 201.783 201.468 203.785C198.584 209.759 195.864 215.668 193.57 221.839C192.489 224.761 194.357 227.912 197.437 228.372L232.927 233.493C235.319 233.854 237.613 232.344 238.301 230.013H238.268Z" fill="#4471F0" fill-opacity="0.4"/>
<path d="M131.865 230.67C130.685 237.039 127.867 238.975 121.543 238.253C115.972 237.63 110.434 237.104 104.863 236.382C100.537 235.824 96.1789 235.266 91.9516 234.314C84.5785 232.607 79.8924 229.653 81.662 219.444C84.4146 203.687 87.7899 188.095 92.1483 172.699C92.8692 170.172 94.4094 168.629 96.9654 168.333C100.341 167.972 103.749 167.677 107.124 167.644C113.121 167.578 119.118 167.644 125.115 167.775C134.716 168.038 138.747 169.778 137.469 181.398C136.223 192.789 132.75 225.648 131.832 230.605L131.865 230.67ZM95.3269 223.153C100.996 224.794 110.434 226.075 118.135 226.272C119.871 226.304 121.412 225.09 121.739 223.383C124.23 210.055 125.475 196.531 126.425 182.81C126.556 180.774 124.951 179.035 122.919 179.002C116.594 178.903 110.499 178.838 104.175 178.739C102.471 178.739 100.996 179.921 100.636 181.595C98.0468 194.069 95.458 206.51 92.8364 218.984C92.4432 220.822 93.5574 222.628 95.3597 223.153H95.3269Z" fill="#4471F0" fill-opacity="0.4"/>
<path d="M96.4012 84.6426C95.4804 92.1009 94.1269 99.8956 92.0593 107.132C91.3146 109.739 90.2421 112.036 89.158 114.495C88.2627 116.527 87.6565 118.872 86.3168 120.658M87.3973 92.2058C92.2505 90.9501 97.1081 89.7181 101.924 88.3242C103.096 87.9848 104.228 87.8978 105.445 87.884C106.425 87.8728 109.431 87.3407 110.267 87.984C112.672 89.8339 108.985 93.6562 107.466 94.947C105.259 96.8227 103.163 99.1095 100.563 100.409C99.8083 100.787 99.1662 100.695 98.382 100.87C97.7422 101.012 100.38 101.047 100.923 100.93C104.601 100.134 107.636 101.838 110.907 103.171C114.049 104.451 114.223 107.627 114.029 110.534C113.71 115.31 107.596 117.838 103.684 118.857C96.7827 120.656 89.4725 121.908 82.3551 121.018" stroke="#AF927D" stroke-opacity="0.4" stroke-width="6" stroke-linecap="round"/>
<path d="M124.612 86.4434C125.185 93.2054 125.692 99.9091 125.692 106.692C125.692 108.309 125.597 109.937 125.873 111.534C126.05 112.561 125.385 117.373 126.253 118.117C127.742 119.393 130.918 117.636 132.415 117.137C136.004 115.94 139.88 114.938 143.34 113.455M126.053 104.451C130.649 102.786 135.318 101.259 139.699 99.0688L139.738 99.0493C140.722 98.5569 141.539 98.1485 142.62 97.9683M121.731 86.8035C126.88 86.0114 132.036 85.1608 137.217 84.6426" stroke="#AF927D" stroke-opacity="0.4" stroke-width="6" stroke-linecap="round"/>
<path d="M180.314 86.0832C178.034 83.5871 176.1 80.472 172.47 80.3207C171.413 80.2767 170.416 79.9059 169.349 79.9606C166.795 80.0915 164.563 82.1286 162.706 83.6822C159.867 86.0574 158.092 89.0763 157.063 92.606C154.932 99.921 153.845 109.086 155.983 116.536C157.691 122.49 160.761 124.98 167.008 124.98C170.705 124.98 174.22 123.427 175.071 119.538C175.846 115.994 173.623 113.437 170.97 111.314C170.26 110.747 169.647 109.98 168.789 109.673C168.154 109.447 167.025 109.554 168.468 109.313C172.382 108.661 176.506 109.682 180.314 108.413" stroke="#AF927D" stroke-opacity="0.4" stroke-width="6" stroke-linecap="round"/>
<path d="M190.038 85.7234C189.233 95.4116 188.597 105.113 188.597 114.836C188.597 119.038 190.947 121.739 194.92 121.739C198.533 121.739 201.06 119.983 203.363 117.237C204.633 115.724 206.302 114.28 206.805 112.295C207.295 110.359 207.325 108.275 207.325 106.292C207.325 101.97 207.396 98.8177 205.725 94.8073C204.563 92.0203 203.217 89.4138 200.682 87.7242C198.293 86.1315 196.252 85.1897 193.359 84.983C191.696 84.8643 192.374 85.1005 191.478 86.4437" stroke="#AF927D" stroke-opacity="0.4" stroke-width="6" stroke-linecap="round"/>
</g>
<defs>
<clipPath id="clip0_2611_864">
<rect width="343" height="410" fill="white"/>
</clipPath>
</defs>
</svg>
