<svg width="43" height="43" viewBox="0 0 43 43" fill="none" xmlns="http://www.w3.org/2000/svg">
<circle cx="21.5" cy="21.5" r="21.5" fill="#D6D0C2"/>
<path d="M34 26.3406L27.4115 33L24.2297 29.7777L25.2942 28.7036L27.4115 30.8279L32.9354 25.2665L34 26.3406ZM22.1124 13.5828V19.6932H26.6545V21.2208H20.5983V13.5828H22.1124ZM21.3553 30.3864C21.4815 30.3864 21.6077 30.3824 21.7339 30.3744C21.86 30.3665 21.9862 30.3585 22.1124 30.3506L23.4608 31.7111C23.106 31.7747 22.7551 31.8225 22.4081 31.8543C22.0611 31.8861 21.7102 31.906 21.3553 31.914C20.3144 31.914 19.313 31.7787 18.3509 31.5082C17.3889 31.2377 16.482 30.8518 15.6304 30.3506C14.7787 29.8493 14.0138 29.2526 13.3356 28.5604C12.6575 27.8682 12.066 27.0925 11.5614 26.2332C11.0567 25.3739 10.6742 24.463 10.414 23.5002C10.1538 22.5375 10.0158 21.5231 10 20.457C10 19.4068 10.1341 18.3963 10.4022 17.4257C10.6703 16.455 11.0527 15.54 11.5495 14.6808C12.0463 13.8215 12.6378 13.0497 13.3238 12.3655C14.0099 11.6813 14.7787 11.0845 15.6304 10.5753C16.482 10.0661 17.3849 9.68026 18.3391 9.4177C19.2932 9.15515 20.2987 9.01591 21.3553 9C22.3963 9 23.3977 9.13526 24.3598 9.40577C25.3218 9.67628 26.2287 10.0622 27.0803 10.5634C27.932 11.0646 28.6969 11.6614 29.3751 12.3536C30.0532 13.0457 30.6447 13.8215 31.1493 14.6808C31.654 15.54 32.0365 16.451 32.2967 17.4137C32.5569 18.3764 32.6949 19.3909 32.7107 20.457C32.7107 20.8548 32.687 21.2566 32.6397 21.6624L30.6525 23.6793C31.0153 22.6211 31.1966 21.547 31.1966 20.457C31.1966 19.542 31.0784 18.6629 30.8418 17.8195C30.6052 16.9761 30.274 16.1885 29.8482 15.4565C29.4224 14.7245 28.9098 14.0522 28.3105 13.4396C27.7112 12.827 27.0488 12.3098 26.3233 11.8881C25.5978 11.4664 24.8132 11.1323 23.9694 10.8856C23.1257 10.639 22.2543 10.5196 21.3553 10.5276C20.4485 10.5276 19.5771 10.6469 18.7413 10.8856C17.9054 11.1243 17.1247 11.4585 16.3992 11.8881C15.6737 12.3178 15.0074 12.8349 14.4002 13.4396C13.793 14.0443 13.2804 14.7126 12.8625 15.4446C12.4446 16.1765 12.1134 16.9682 11.8689 17.8195C11.6244 18.6708 11.5062 19.55 11.514 20.457C11.514 21.372 11.6323 22.2511 11.8689 23.0945C12.1055 23.9378 12.4367 24.7255 12.8625 25.4575C13.2883 26.1895 13.8009 26.8618 14.4002 27.4744C14.9995 28.087 15.6619 28.6042 16.3874 29.0259C17.1129 29.4475 17.8975 29.7817 18.7413 30.0283C19.585 30.275 20.4564 30.3943 21.3553 30.3864Z" fill="#2E2E2E"/>
</svg>
