<svg width="43" height="43" viewBox="0 0 43 43" fill="none" xmlns="http://www.w3.org/2000/svg">
<circle cx="21.5" cy="21.5" r="21.5" fill="#D6D0C2"/>
<path fill-rule="evenodd" clip-rule="evenodd" d="M21.5 10.7442C18.6474 10.7442 15.9116 11.8774 13.8945 13.8945C11.8774 15.9116 10.7442 18.6474 10.7442 21.5C10.7442 24.3526 11.8774 27.0884 13.8945 29.1055C15.9116 31.1226 18.6474 32.2558 21.5 32.2558C24.3526 32.2558 27.0884 31.1226 29.1055 29.1055C31.1226 27.0884 32.2558 24.3526 32.2558 21.5C32.2558 18.6474 31.1226 15.9116 29.1055 13.8945C27.0884 11.8774 24.3526 10.7442 21.5 10.7442ZM9 21.5C9 14.5965 14.5965 9 21.5 9C28.4035 9 34 14.5965 34 21.5C34 28.4035 28.4035 34 21.5 34C14.5965 34 9 28.4035 9 21.5ZM17.3105 25.6314C17.3787 25.5393 17.4645 25.4616 17.5628 25.4027C17.6612 25.3438 17.7702 25.3049 17.8836 25.2882C17.997 25.2714 18.1125 25.2772 18.2237 25.3052C18.3349 25.3331 18.4394 25.3828 18.5314 25.4512C19.3779 26.0791 20.4 26.4419 21.5 26.4419C22.6 26.4419 23.6221 26.0779 24.4686 25.4512C24.5603 25.3798 24.6653 25.3275 24.7775 25.2973C24.8897 25.2671 25.0068 25.2596 25.1219 25.2753C25.237 25.291 25.3479 25.3295 25.4479 25.3886C25.5479 25.4477 25.6351 25.5262 25.7044 25.6195C25.7736 25.7128 25.8236 25.819 25.8512 25.9318C25.8789 26.0447 25.8837 26.1619 25.8654 26.2766C25.8471 26.3914 25.8061 26.5013 25.7448 26.6C25.6834 26.6986 25.603 26.784 25.5081 26.8512C24.3507 27.7161 22.9449 28.1843 21.5 28.186C20.0551 28.1843 18.6493 27.7161 17.4919 26.8512C17.3061 26.7134 17.1826 26.5076 17.1486 26.2788C17.1146 26.0501 17.1728 25.8172 17.3105 25.6314Z" fill="#2E2E2E"/>
<path d="M26.1471 19.7559C26.1471 20.7187 25.6261 21.5001 24.9843 21.5001C24.3424 21.5001 23.8215 20.7187 23.8215 19.7559C23.8215 18.7931 24.3424 18.0117 24.9843 18.0117C25.6261 18.0117 26.1471 18.7931 26.1471 19.7559ZM19.1703 19.7559C19.1703 20.7187 18.6494 21.5001 18.0075 21.5001C17.3657 21.5001 16.8447 20.7187 16.8447 19.7559C16.8447 18.7931 17.3657 18.0117 18.0075 18.0117C18.6494 18.0117 19.1703 18.7931 19.1703 19.7559Z" fill="#2E2E2E"/>
</svg>
