<svg width="18" height="18" viewBox="0 0 18 18" fill="none" xmlns="http://www.w3.org/2000/svg">
<path d="M9 1C4.5816 1 1 4.5816 1 9C1 13.4184 4.5816 17 9 17C13.4184 17 17 13.4184 17 9C17 4.5816 13.4184 1 9 1Z" stroke="#1F1F1F" stroke-linecap="round" stroke-linejoin="round"/>
<path d="M2.81299 14.078C2.81299 14.078 4.59619 11.8012 8.99619 11.8012C13.3962 11.8012 15.1802 14.078 15.1802 14.078M8.99619 9.00117C9.63271 9.00117 10.2432 8.74832 10.6932 8.29823C11.1433 7.84814 11.3962 7.23769 11.3962 6.60117C11.3962 5.96465 11.1433 5.3542 10.6932 4.90412C10.2432 4.45403 9.63271 4.20117 8.99619 4.20117C8.35967 4.20117 7.74922 4.45403 7.29913 4.90412C6.84904 5.3542 6.59619 5.96465 6.59619 6.60117C6.59619 7.23769 6.84904 7.84814 7.29913 8.29823C7.74922 8.74832 8.35967 9.00117 8.99619 9.00117Z" stroke="#1F1F1F" stroke-linecap="round" stroke-linejoin="round"/>
</svg>
