<svg width="95" height="97" viewBox="0 0 95 97" fill="none" xmlns="http://www.w3.org/2000/svg">
<g clip-path="url(#clip0_2879_3414)">
<path d="M49.1066 47.746C48.9901 48.2005 49.357 48.5875 49.8459 48.5471C49.9681 48.537 50.0806 48.5244 50.196 48.5178C54.208 48.2104 58.2227 50.8908 57.9071 55.4868C57.7728 57.456 57.1846 59.3509 56.2212 61.1761C55.7452 62.0746 55.2173 62.9548 54.7029 63.8282C54.4028 64.3389 54.4673 64.9321 54.871 65.3079C55.5017 65.8959 56.1429 66.4712 56.7018 67.1182C57.5451 68.0899 58.0835 69.2467 58.3936 70.505C59.1901 73.6846 57.0859 77.1198 53.5883 78.5366C49.343 80.2525 45.5437 79.5943 42.1087 77.4683C41.8721 77.3205 41.5365 77.4617 41.4517 77.7285C41.4323 77.7906 41.413 77.8526 41.3967 77.9205C40.9704 79.5167 40.2327 81.0182 39.2458 82.4305C36.2783 86.6707 30.8757 87.4481 27.4533 84.1306C26.1624 82.88 25.433 81.2987 24.8183 79.6589C24.7042 79.3518 24.3147 79.2372 23.9845 79.4054C23.8631 79.4672 23.7418 79.5291 23.6302 79.5934C22.2614 80.3728 20.8059 80.6821 19.2982 80.5558C16.1389 80.2871 14.1443 77.539 14.8482 74.5714C15.6099 71.3508 17.7513 68.9552 21.134 67.4627C21.188 67.4352 21.2449 67.4136 21.3086 67.3886C21.8622 67.1588 22.2034 66.6122 22.1391 66.0859C21.9135 64.1435 21.9286 62.1903 22.4281 60.2213C22.6337 59.4084 22.9022 58.5858 23.2901 57.8141C24.7187 54.9693 27.5574 53.3589 30.9142 53.4151L30.921 53.4117C31.4467 53.4271 31.9226 53.0281 31.9686 52.535C32.0152 52.0268 32.0679 51.5303 32.0876 51.0357C32.3523 45.6233 34.1266 40.5076 37.0954 35.6033C38.5566 33.1891 40.0262 30.8078 41.9658 28.6493C46.0536 24.0916 51.1781 21.3687 57.1462 20.0348C61.2189 19.13 65.1162 19.3805 68.8864 20.3815C72.1658 21.2524 75.1982 22.5549 78.0507 24.1875C80.3038 25.4769 82.3431 26.9798 83.9808 28.9108C84.2741 29.2533 84.531 29.3908 85.0434 29.1968C86.4533 28.6647 87.7737 28.8567 89.0558 29.3066C90.9105 29.9642 92.2524 31.1814 93.3526 32.6408C93.6438 33.0291 93.9148 33.4278 94.2077 33.8525C94.4509 34.2131 95.0231 34.2197 95.3551 33.8717L95.3933 33.8299C96.8703 32.2797 98.4315 30.8282 100.376 29.7628C103.796 27.8935 107.762 29.2275 108.773 32.6627C108.978 33.3484 108.907 34.1748 108.763 34.9263C108.394 36.9182 107.3 38.6534 105.823 40.2188C105.695 40.3511 105.563 40.4927 105.432 40.6343C105.141 40.9465 105.221 41.4048 105.593 41.5509C108.527 42.7098 111.418 45.8356 110.006 50.4614C109.47 52.2253 108.371 53.5679 106.692 54.5723C104.117 56.1158 101.375 56.6179 98.555 56.348C97.3233 56.2302 96.128 55.9671 94.9201 55.7626C94.4077 55.6733 93.8805 55.9717 93.6875 56.4428C93.6801 56.4615 93.6726 56.4802 93.6584 56.5023C93.0241 57.9735 92.4867 59.4847 91.7007 60.8915C90.6199 62.8361 88.9358 64.3129 86.896 65.4417C85.7443 66.0807 84.5411 66.2688 83.3079 66.1145C80.7235 65.7914 77.4837 63.9984 77.0887 60.3905C76.9711 59.31 77.0229 58.1952 76.9983 57.0971C76.9983 57.0971 76.9983 57.0971 76.9953 57.0912C76.9868 56.7079 76.6066 56.4618 76.199 56.595C75.9952 56.6615 75.7982 56.7247 75.5981 56.7819C72.6404 57.6255 69.7544 56.0771 69.2044 53.398C68.4554 49.7618 70.6788 45.4609 74.4086 43.3667C74.6587 43.2243 74.9148 43.0938 75.1942 42.9589C75.5986 42.7529 75.6971 42.2629 75.3867 42.0036C74.9275 41.6189 74.4998 41.2629 74.0482 40.9264C72.1885 39.526 70.1441 38.3463 67.9138 37.485C64.5297 36.1754 60.9081 35.7993 57.121 36.9314C53.501 38.0081 51.0404 40.2607 50.1017 43.7504C49.7475 45.0714 49.4195 46.3939 49.0827 47.7657L49.1066 47.746ZM24.8715 76.2476C25.7098 75.9099 26.2112 76.0942 26.5498 76.8087C27.1674 78.1042 27.7004 79.4501 28.3824 80.7053C29.182 82.1912 30.3706 83.3075 32.2903 83.5593C33.5918 83.731 34.8143 83.4809 35.8234 82.512C36.3298 82.0229 36.7707 81.4553 37.1659 80.8813C38.1729 79.3917 38.6793 77.7695 39.0979 76.125C39.2145 75.6706 39.3213 75.2137 39.5189 74.785C40.0893 73.5551 41.4652 73.1895 42.4549 73.9822C42.6736 74.1615 42.8512 74.3767 43.0564 74.5628C45.5678 76.809 48.6637 77.4529 52.2417 76.3604C54.8283 75.5716 56.5588 73.1693 55.3873 70.5534C54.8358 69.3212 54.0352 68.2831 52.9733 67.4153C52.3901 66.9372 51.8899 66.3721 51.3448 65.8523C50.9103 65.4326 50.9051 64.906 51.1542 64.3617C51.3406 63.9611 51.6051 63.5803 51.8403 63.1921C52.5473 61.997 53.3061 60.8202 53.9486 59.5984C54.6045 58.3697 54.9378 57.0743 55.0655 55.742C55.3781 52.5563 52.5396 50.8346 49.8976 51.1148C48.294 51.2834 46.7932 51.7871 45.3743 52.5847C42.9518 53.9457 41.1068 55.8399 39.5459 57.9919C39.3105 58.3131 39.1104 58.6536 38.8495 58.958C38.2163 59.6981 37.3624 59.8052 36.6777 59.2446C36.4402 59.0451 36.2439 58.8097 36.0236 58.5939C34.8583 57.4733 33.5613 56.4942 31.8461 56.1605C28.9379 55.585 26.1757 56.6122 25.2815 59.9228C25.2183 60.1488 25.1619 60.3713 25.1085 60.5998C24.7708 62.2031 24.763 63.7874 24.9403 65.3518C25.0033 65.9086 25.0962 66.4576 25.1292 67.0222C25.1989 68.1421 24.6235 68.9123 23.4509 69.2937C23.1234 69.4009 22.7907 69.481 22.4633 69.5882C19.8993 70.4548 18.2187 72.1385 17.4082 74.497C16.6015 76.8461 18.3444 78.567 20.9129 78.0261C21.6871 77.8627 24.2655 76.4744 24.8423 76.2401L24.8715 76.2476ZM76.6951 45.0715C76.284 45.281 75.9109 45.4487 75.556 45.6519C73.1008 47.0818 71.5874 49.9103 71.9494 52.3869C72.1839 53.9968 73.4975 54.7587 75.2216 54.1933C75.8929 53.978 76.5173 53.5704 77.1516 53.2323C77.8735 52.8496 78.5653 52.4076 79.3083 52.0663C79.8191 51.8359 80.3606 51.8656 80.7127 52.29C81.0557 52.6966 80.9587 53.156 80.6825 53.6471C80.4131 54.1347 80.149 54.6494 80.0131 55.1659C79.619 56.7085 79.65 58.2357 79.8729 59.7397C80.1319 61.5309 81.2754 62.6254 83.0131 63.2532C84.3072 63.7269 85.4749 63.4525 86.6439 62.581C88.3961 61.2708 89.5384 59.6303 90.281 57.7387C90.6424 56.8315 90.9129 55.8961 91.2675 54.9924C91.9461 53.275 92.8626 52.7409 94.711 52.9694C95.2804 53.0371 95.8304 53.1669 96.3961 53.2439C97.3143 53.3798 98.2319 53.531 99.165 53.6295C100.851 53.8064 102.531 53.5542 104.173 52.9113C105.986 52.2038 107.149 51.0372 107.443 49.1806C107.792 46.9158 106.332 44.6333 103.917 43.9105C103.385 43.7493 102.805 43.6944 102.258 43.5706C100.881 43.2662 100.51 42.1728 101.428 41.0417C101.7 40.7093 102.029 40.4222 102.327 40.1066C103.095 39.2978 103.879 38.5034 104.612 37.6753C105.424 36.7543 105.938 35.6953 106.154 34.5711C106.246 34.0845 106.233 33.5249 106.055 33.0935C105.357 31.4067 103.555 30.8862 101.731 31.9051C99.1775 33.3254 97.1586 35.2784 95.6275 37.6389C95.1241 38.4171 94.5001 38.6754 93.814 38.1454C93.2452 37.7122 92.799 37.1196 92.388 36.5463C91.8754 35.8236 91.4916 35.0203 90.982 34.3034C90.1389 33.1154 89.1066 32.1059 87.5793 31.6243C86.7071 31.3457 85.8907 31.4262 85.0448 31.9989C83.7505 32.8745 83.0839 34.049 82.7912 35.3908C82.3598 37.3102 82.3843 39.1911 82.8151 41.0364C82.9364 41.5411 82.9476 42.0795 82.982 42.6136C83.0125 43.09 82.7395 43.3708 82.2216 43.4707C81.8265 43.5452 81.4315 43.6198 81.0328 43.7037C79.5436 44.0301 78.0286 44.2728 76.7214 45.073L76.6951 45.0715ZM37.0707 55.8167C37.5274 56.1133 38.2209 55.7748 38.266 55.23C38.3859 53.7825 38.3446 52.335 38.5073 50.888C39.1948 44.5893 41.6228 38.7902 46.1695 33.6335C49.8862 29.4141 54.6193 26.9726 60.1498 26.3462C68.0486 25.4523 74.6701 27.617 80.0962 32.3511C80.0962 32.3511 80.0962 32.3511 80.0993 32.357C80.4315 32.6425 80.9914 32.5584 81.2852 32.1851C81.5266 31.8757 81.7643 31.5757 82.002 31.2757C82.3129 30.8862 82.2973 30.3724 81.9695 30.0623C80.744 28.8903 79.4237 27.8486 77.9545 26.9647C75.1543 25.2682 72.125 23.9716 68.9082 22.957C59.78 20.0719 48.9175 23.7804 43.041 31.1427C41.2419 33.3937 39.9105 35.8462 38.4755 38.262C35.5443 43.2067 34.7204 48.4047 34.5738 53.6824C34.5699 53.908 34.6517 54.2018 34.817 54.3263C35.5337 54.8332 36.2782 55.3111 37.0669 55.8261L37.0707 55.8167ZM78.8687 41.4892C79.3717 41.71 79.9757 41.2457 79.8813 40.7273C79.605 39.1685 79.6256 37.5926 79.8021 35.9895C79.8314 35.7137 79.577 35.3811 79.3537 35.1595C75.2066 31.1527 70.0516 28.867 63.7556 28.6908C56.993 28.4988 51.3293 30.9299 47.0707 36.402C44.0407 40.2865 42.2859 44.5573 41.3814 49.0807C41.2387 49.8169 41.1649 50.5552 41.1076 51.2925C41.0653 51.7762 41.6285 52.0483 42.0792 51.7665C43.2142 51.0614 44.329 50.3667 45.4812 49.6454C45.9013 49.3867 46.1746 48.9567 46.2019 48.5104C46.3073 46.6677 46.8693 44.7713 47.519 42.8972C48.8825 38.9748 51.6551 36.1682 55.8463 34.6961C60.5994 33.0272 65.147 33.3712 69.3729 35.1165C72.8015 36.5301 75.8177 38.534 78.3412 41.0871C78.5141 41.2599 78.6855 41.3962 78.8724 41.4799L78.8687 41.4892Z" fill="#8DA4B5" fill-opacity="0.4"/>
</g>
<defs>
<clipPath id="clip0_2879_3414">
<rect width="104" height="55" fill="white" transform="translate(0 47.9961) rotate(-27)"/>
</clipPath>
</defs>
</svg>
