<svg width="292" height="321" viewBox="0 0 292 321" fill="none" xmlns="http://www.w3.org/2000/svg">
<g clip-path="url(#clip0_2611_1732)">
<path d="M185.726 130.872C184.265 131.857 184.128 133.944 185.394 135.139C185.711 135.437 186.01 135.703 186.302 135.993C196.632 145.867 199.181 164.271 186.45 176.536C180.998 181.794 174.661 185.623 167.616 188.248C164.143 189.536 160.594 190.632 157.096 191.745C155.052 192.398 153.659 194.263 153.638 196.417C153.603 199.784 153.627 203.143 153.268 206.487C152.737 211.518 151.001 216.261 148.457 220.682C142.06 231.886 128.108 236.047 116.107 230.716C101.552 224.235 94.2435 212.177 91.6268 196.907C91.4501 195.852 90.285 195.355 89.3881 195.889C89.1804 196.014 88.9728 196.139 88.7569 196.29C83.5836 199.701 77.9175 202.007 71.892 203.391C53.7906 207.535 38.9322 195.276 39.4517 176.641C39.6455 169.615 42.0354 163.149 44.8498 156.824C45.3795 155.642 44.7532 154.272 43.5301 153.867C43.0808 153.718 42.6315 153.569 42.1988 153.454C36.916 152.009 32.6527 148.991 29.401 144.591C22.5975 135.358 25.0239 122.174 34.4314 115.595C44.636 108.449 55.9669 107.353 67.8918 112.16C68.0915 112.226 68.2829 112.317 68.4993 112.417C70.4134 113.244 72.6488 112.6 73.8677 110.926C78.3953 104.78 83.5227 99.2489 89.8417 94.9706C92.4491 93.2026 95.2313 91.5756 98.1641 90.4139C108.973 86.1266 119.913 89.1395 127.739 98.2951L127.764 98.3034C128.973 99.756 131.143 99.893 132.538 98.6097C133.973 97.2848 135.393 96.0097 136.729 94.6517C151.466 79.9213 169.016 70.0828 188.851 64.0478C198.615 61.0764 208.313 58.2215 218.547 57.2613C240.136 55.2139 259.405 61.1785 277.058 73.3658C289.089 81.698 297.693 92.8559 304.038 105.814C309.557 117.087 313.364 128.928 315.883 141.228C317.874 150.945 318.799 160.696 317.655 170.593C317.459 172.356 317.711 173.437 319.434 174.256C324.169 176.517 326.805 180.602 328.677 185.321C331.368 192.168 331.383 199.235 330.191 206.347C329.871 208.235 329.475 210.098 329.064 212.095C328.701 213.775 330.043 215.327 331.739 215.224L331.939 215.207C339.488 214.743 346.979 214.786 354.376 216.958C367.371 220.79 373.312 235.221 366.76 247.731C365.46 250.236 363.136 252.403 360.836 254.162C354.768 258.856 347.646 260.874 340.055 261.38C339.407 261.414 338.725 261.465 338.043 261.517C336.539 261.628 335.536 263.152 336.037 264.564C339.985 275.731 338.704 292.397 323.291 301.807C317.419 305.403 311.31 306.288 304.705 304.655C294.564 302.156 286.744 296.243 280.749 287.915C278.131 284.279 275.978 280.325 273.642 276.505C272.657 274.877 270.627 274.316 268.941 275.143C268.875 275.176 268.808 275.209 268.717 275.235C263.375 277.731 258.159 280.602 252.625 282.509C244.989 285.16 237.14 284.86 229.352 282.614C224.951 281.351 221.603 278.664 219.076 274.919C213.781 267.072 210.759 253.275 219.226 241.925C221.764 238.527 224.792 235.486 227.596 232.288C227.596 232.288 227.596 232.288 227.605 232.263C228.584 231.147 228.322 229.426 227.007 228.714C226.35 228.357 225.717 228.009 225.093 227.637C215.869 222.117 213.05 209.967 218.728 200.851C226.427 188.471 242.92 182.16 257.238 186.18C258.203 186.445 259.151 186.759 260.166 187.122C261.664 187.618 263.175 186.484 263.114 184.913C263.026 182.585 262.938 180.423 262.743 178.254C261.976 169.275 260.196 160.432 257.144 151.998C252.52 139.194 244.898 128.417 232.953 121.498C221.548 114.869 209.832 114.701 198.505 122.141C194.221 124.96 189.994 127.854 185.618 130.864L185.726 130.872ZM53.8687 147.236C56.7399 148.519 57.4505 150.388 56.3921 153.334C54.4821 158.684 52.2394 163.952 50.5873 169.36C48.6129 175.741 48.526 182.111 52.4291 187.973C55.0729 191.95 58.6286 194.513 63.5508 194.453C66.0286 194.415 68.5554 193.977 70.9905 193.398C77.2652 191.848 82.6965 188.577 87.9776 185.008C89.439 184.024 90.8837 183.006 92.4705 182.313C97.0314 180.333 101.252 182.977 101.537 187.891C101.589 188.988 101.45 190.078 101.452 191.159C101.561 204.296 107.236 214.429 118.582 220.9C126.782 225.581 137.154 223.365 141.19 212.764C143.093 207.771 143.897 202.664 143.637 197.343C143.498 194.417 143.783 191.464 143.844 188.521C143.906 186.159 145.266 184.643 147.277 183.758C148.764 183.114 150.384 182.737 151.955 182.26C156.75 180.745 161.619 179.422 166.33 177.658C171.091 175.91 175.26 173.108 179.036 169.65C188.083 161.4 185.829 148.882 178.824 142.602C174.575 138.786 169.698 136.201 164.248 134.674C154.947 132.065 145.627 132.525 136.31 134.481C134.914 134.766 133.551 135.201 132.138 135.371C128.705 135.785 126.397 133.802 126.232 130.369C126.188 129.163 126.336 127.965 126.375 126.76C126.528 120.44 126 114.172 122.796 108.624C117.389 99.189 108.151 94.7176 97.397 101.765C96.658 102.241 95.9438 102.724 95.2215 103.233C90.2399 106.902 86.0916 111.4 82.4346 116.338C81.1327 118.095 79.9224 119.91 78.5289 121.609C75.7752 124.991 72.4007 125.646 68.6216 123.592C67.5645 123.02 66.5653 122.357 65.5082 121.785C57.1595 117.387 48.7787 117.686 40.7059 122.243C32.6662 126.782 32.3196 136.361 39.8304 141.701C42.0953 143.31 51.8379 146.258 53.8186 147.136L53.8687 147.236ZM258.224 197.171C256.702 196.667 255.378 196.145 254.006 195.774C244.447 193.274 233.479 197.287 227.883 205.322C224.243 210.543 225.377 216.236 230.946 219.243C233.102 220.428 235.647 220.938 238.035 221.674C240.747 222.516 243.542 223.109 246.197 224.127C248.011 224.838 249.22 226.374 248.95 228.528C248.704 230.607 247.276 231.658 245.34 232.319C243.429 232.988 241.46 233.748 239.791 234.858C234.834 238.202 230.927 242.641 227.536 247.529C223.481 253.333 223.344 259.519 225.835 265.967C227.674 270.786 231.163 273.132 236.211 273.778C243.788 274.736 250.777 273.117 257.472 269.711C260.695 268.092 263.776 266.148 266.974 264.52C273.063 261.44 276.632 262.372 280.426 267.977C281.602 269.696 282.57 271.54 283.713 273.275C285.54 276.124 287.325 279.014 289.284 281.795C292.828 286.818 297.476 290.601 303.052 293.167C309.202 296.007 315.005 295.795 320.542 291.286C327.275 285.76 329.756 275.336 325.906 266.805C325.063 264.919 323.828 263.208 322.852 261.389C320.373 256.829 322.344 252.718 327.473 251.951C328.986 251.732 330.516 251.795 332.045 251.692C335.978 251.443 339.91 251.277 343.809 250.879C348.14 250.429 352.12 248.783 355.565 246.157C357.051 245.015 358.478 243.382 359.182 241.676C361.92 234.994 358.997 228.681 352.009 226.699C342.242 223.908 332.356 224.07 322.566 226.7C319.342 227.572 317.186 226.636 316.938 223.286C316.716 220.526 317.201 217.64 317.72 214.903C318.386 211.468 319.568 208.148 320.227 204.737C321.321 199.089 321.501 193.443 319.129 187.977C317.784 184.845 315.635 182.887 312.133 182.253C306.776 181.283 302.131 182.847 297.938 185.891C291.91 190.21 287.065 195.641 283.278 202.059C282.251 203.824 280.874 205.39 279.563 207.006C278.394 208.447 277.014 208.516 275.523 207.413C274.391 206.567 273.258 205.721 272.092 204.892C267.704 201.833 263.473 198.466 258.283 197.245L258.224 197.171ZM136.101 121.643C136.413 123.713 138.943 124.606 140.47 123.173C144.528 119.364 148.203 115.125 152.361 111.433C170.414 95.3073 191.297 85.2708 215.538 82.7441C235.365 80.6671 252.971 86.3855 267.739 99.4185C288.83 118.035 298.914 141.953 299.461 169.998C299.461 169.998 299.461 169.998 299.453 170.023C299.498 171.727 301.047 172.988 302.718 172.71C304.098 172.475 305.444 172.256 306.791 172.037C308.545 171.759 309.847 170.251 309.877 168.488C310.021 161.861 309.601 155.351 308.415 148.893C306.187 136.55 302.372 124.734 297.376 113.22C283.217 80.5292 247.75 62.0002 214.601 67.2554C204.46 68.8556 194.904 72.284 185.199 75.3301C165.347 81.5813 149.84 94.2013 135.735 108.864C135.137 109.497 134.566 110.554 134.634 111.352C135.015 114.719 135.537 118.077 136.068 121.66L136.101 121.643ZM272.725 192.776C273.344 194.754 275.989 195.048 277.116 193.316C280.523 188.129 284.68 183.689 289.278 179.589C290.067 178.88 290.329 177.25 290.377 176.019C290.972 153.477 284.686 133.143 270.192 115.769C254.63 97.1 234.841 88.8583 210.462 93.0565C193.14 96.0182 177.839 103.499 163.899 113.979C161.641 115.696 159.541 117.605 157.483 119.555C156.122 120.821 156.75 123.106 158.555 123.51C163.089 124.541 167.548 125.546 172.164 126.576C173.837 126.963 175.607 126.469 176.835 125.269C181.889 120.295 188.167 116.391 194.595 112.786C208.058 105.251 221.96 104.674 235.752 111.706C251.391 119.681 261.296 132.849 266.783 149.152C271.242 162.372 273.182 176.17 272.52 190.216C272.48 191.172 272.532 192.02 272.758 192.759L272.725 192.776Z" fill="#DD425B" fill-opacity="0.4"/>
</g>
<defs>
<clipPath id="clip0_2611_1732">
<rect width="361.488" height="217.74" fill="white" transform="translate(68.4393) rotate(18.3196)"/>
</clipPath>
</defs>
</svg>
