<svg width="246" height="281" viewBox="0 0 246 281" fill="none" xmlns="http://www.w3.org/2000/svg">
<g clip-path="url(#clip0_2611_881)">
<path d="M119.615 88.3449C119.349 89.7053 117.663 90.2117 116.676 89.2568C113.299 85.9875 109.965 83.039 107.658 79.046C104.785 74.0903 101.138 69.6432 96.8147 65.8176C96.3308 65.3949 95.8482 64.9335 95.3323 64.533C91.7724 61.8175 89.8083 61.5974 86.036 64.0357C71.3053 73.5686 63.4419 87.0673 63.0157 104.724C62.9316 108.224 63.4646 111.685 65.0204 114.872C65.5589 115.958 65.4259 116.638 64.7301 117.586C56.9442 128.215 50.9784 139.837 46.2291 152.103C44.5415 156.432 43.3522 159.666 42.8461 164.303C42.7673 164.993 41.0653 168.621 40.639 169.22C39.8029 170.388 38.2551 173.842 37.6109 175.096C31.5645 186.793 29.0799 194.946 28.1716 208.14C27.9565 211.152 28.1362 214.242 28.5536 217.223C29.4119 223.179 33.0126 226.947 38.7083 228.768C45.437 230.915 52.1989 230.564 58.8863 228.786C67.7847 226.411 76.004 222.517 83.3842 216.996C84.7528 215.98 85.7332 214.474 86.9598 213.281C87.428 212.824 88.0878 212.233 88.648 212.261C93.7562 212.394 98.5507 211.029 103.313 209.468C116.708 205.11 128.687 198.255 139.33 189.047C140.64 187.92 141.8 186.195 143.317 185.815C144.796 185.433 146.631 186.435 148.319 186.762C149.805 187.058 151.312 187.424 152.815 187.472C164.422 187.844 175.324 185.473 184.813 178.488C189.63 174.936 193.206 170.31 194.963 164.473C195.907 161.324 196.175 158.142 194.155 155.296C193.257 154.033 192.101 152.768 190.787 152.012C184.929 148.597 178.828 145.663 172.192 144.002C170.956 143.685 169.849 143.021 169.034 142.041C168.196 141.03 167.304 140.047 166.388 139.032C165.586 138.139 165.916 136.734 167.03 136.292C167.03 136.292 167.03 136.292 167.039 136.277C173.25 133.843 178.864 130.468 183.47 125.592C185.413 123.523 187.037 121.239 188.067 118.552C189.9 113.847 189.637 109.345 186.905 105.041C186.713 104.738 186.536 104.443 186.353 104.125C185.69 103.011 186.24 101.568 187.47 101.169C193.705 99.1638 198.839 95.6855 202.081 89.9268C203.12 88.0965 203.697 85.8756 203.974 83.7682C204.576 79.0646 201.99 75.2561 197.502 73.6587C197.456 73.6337 197.386 73.6156 197.332 73.6058C196.208 73.2297 195.765 71.8588 196.454 70.8876C197.004 70.0981 197.545 69.3239 198.048 68.5483C200.42 64.9297 202.016 60.9867 202.372 56.6245C203.036 48.8248 197.413 43.3787 189.612 44.2521C185.292 44.7473 181.657 46.8248 178.256 49.3468C177.296 50.0511 176.396 50.8277 175.44 51.6334C174.773 52.2006 173.742 51.8357 173.593 50.9816C173.496 50.3942 173.407 49.8304 173.264 49.2568C171.572 42.3903 165.884 40.1183 159.945 43.9094C156.477 46.1176 154.075 49.2447 152.295 52.8695C150.617 56.2722 149.493 59.8588 148.82 63.7111C148.673 64.5621 147.782 65.0666 146.975 64.7644C145.083 64.0487 143.228 63.1553 141.289 62.6715C135.998 61.3093 131.734 63.0834 128.475 67.3467C124.072 73.0861 121.625 79.7149 119.97 86.6763C119.849 87.2247 119.72 87.7882 119.606 88.3602L119.615 88.3449ZM164.286 144.958C165.289 145.921 165.476 147.469 164.687 148.624C164.687 148.624 164.687 148.624 164.679 148.639C161.08 153.886 157.611 159.224 153.846 164.341C147.699 172.694 140.819 180.39 132.64 186.902C121.751 195.579 109.679 201.987 96.1943 205.563C93.4802 206.281 90.6308 206.409 87.8275 206.781C86.9033 206.911 86.1637 206.666 85.6183 205.774C82.1666 200.205 78.0091 195.202 73.5876 190.392C66.4249 182.639 58.4662 175.8 49.7185 169.896C48.4699 169.056 48.1859 168.267 48.3755 166.865C49.1479 161.522 50.9228 156.488 52.9297 151.501C58.4551 137.776 65.6518 125.063 75.247 113.737C83.192 104.344 92.8034 96.9901 103.23 90.6156C104.329 89.9476 105.554 88.7937 106.602 88.91C107.65 89.0264 108.559 90.4533 109.486 91.336C113.923 95.5006 118.431 99.6056 122.762 103.891C133.285 114.289 143.686 124.8 154.184 135.244C157.474 138.526 160.87 141.687 164.218 144.901C164.233 144.909 164.248 144.917 164.264 144.926L164.286 144.958ZM159.764 82.9379C165.271 88.8157 170.407 94.1348 175.318 99.6482C177.62 102.232 179.536 105.159 181.564 107.99C183.577 110.812 183.556 113.832 182.055 116.836C181.352 118.235 180.461 119.612 179.422 120.788C174.64 126.241 168.427 129.368 161.661 131.619C160.06 132.151 159.062 131.943 157.858 130.731C150.308 123.105 142.662 115.584 135.081 107.979C131.806 104.706 128.596 101.349 125.386 97.9926C124.702 97.2824 124.056 96.5736 124.247 95.3505C125.365 88.6107 126.969 81.9977 130.238 75.9363C131.371 73.8604 132.818 71.9361 134.249 70.0423C135.572 68.3081 137.433 67.9172 139.515 68.3207C141.993 68.801 144.264 69.8031 146.157 71.3907C150.906 75.3099 155.541 79.365 159.756 82.9532L159.764 82.9379ZM45.8474 174.48C59.5076 183.639 70.5214 195.137 80.003 208.316C81.088 209.819 80.6792 211.914 79.1397 212.916C74.8548 215.748 70.4695 218.109 65.8866 220.105C60.1322 222.611 54.1857 224.378 47.8266 224.354C44.2419 224.339 40.7542 223.783 37.5341 222.045C35.7752 221.086 34.5833 219.742 34.4944 217.613C34.4071 215.663 34.1252 213.707 34.1936 211.763C34.621 198.723 38.4224 186.593 44.0463 174.943C44.3739 174.27 45.2161 174.036 45.8252 174.448L45.8474 174.48ZM178.61 57.9002C180.62 55.7085 183.215 53.4995 186.329 52.049C188.001 51.2774 189.877 50.6769 191.696 50.5802C194.532 50.4041 196.412 52.3417 196.273 55.1782C196.177 57.0275 195.753 58.896 195.161 60.6726C194.056 63.9329 192.102 66.7495 189.816 69.2657C188.072 71.1869 186.118 72.9135 184.171 74.6248C182.539 76.0518 181.977 77.6271 182.756 79.1816C183.543 80.7598 185.325 81.2768 187.486 80.5543C188.235 80.3094 188.982 79.8853 189.741 79.8042C191.306 79.6281 192.92 79.3993 194.456 79.6037C197.287 79.9802 198.36 81.6156 197.546 84.3806C197.093 85.9366 196.291 87.4797 195.326 88.7755C192.038 93.1624 187.17 95.0622 182.192 96.7633C181.191 97.108 180.783 96.5091 180.211 95.9198C173.819 89.301 167.442 82.6906 160.986 76.1163C159.21 74.3149 157.241 72.6855 155.36 71.0048C154.748 70.453 154.383 69.9569 154.433 68.9933C154.708 63.834 156.209 59.0468 158.651 54.5355C159.876 52.2916 161.419 50.3008 163.724 49.0231C165.711 47.9283 166.517 48.2693 167.187 50.4971C167.271 50.7805 167.354 51.0638 167.384 51.3374C167.857 55.3798 168.246 59.3956 166.86 63.3541C166.67 63.8843 166.563 64.4798 166.527 65.0546C166.448 66.8734 167.451 68.2727 169.051 68.6507C170.636 69.0203 172.277 68.232 172.82 66.5081C173.848 63.206 175.94 60.6826 178.6 57.9543L178.61 57.9002ZM149.963 178.585C157.333 170.028 164.082 161.408 169.679 151.843C170.276 150.822 171.553 150.41 172.651 150.87L172.667 150.879C177.12 152.794 181.623 154.618 185.968 156.731C189.278 158.34 189.678 159.826 188.419 163.26C186.739 167.83 183.768 171.419 179.701 174.034C170.993 179.623 161.345 181.588 151.118 181.197C151.118 181.197 151.118 181.197 151.103 181.188C149.779 181.14 149.11 179.566 149.971 178.57L149.963 178.585ZM71.6247 108.808C70.8677 109.723 69.3871 109.271 69.2572 108.091C69.211 107.63 69.1649 107.169 69.1577 106.709C68.8796 92.2341 74.8191 80.6966 85.8333 71.5722C86.821 70.7443 87.9966 70.118 89.0664 69.3943C89.8167 68.8925 90.527 68.8641 91.2292 69.505C91.8634 70.0888 92.6504 70.5381 93.2123 71.1816C95.6032 73.893 97.9538 76.6419 100.296 79.4061C100.73 79.9203 101.14 80.4414 101.551 80.9625C102.587 82.3008 102.23 84.2651 100.772 85.1535C89.9079 91.7844 79.7015 98.9922 71.6094 108.8L71.6247 108.808Z" fill="#42A9E5" fill-opacity="0.4"/>
<path d="M128.12 123.972C126.827 121.285 125.694 118.705 124.362 116.235C122.636 113.034 120 110.843 116.465 109.865C115.315 109.535 114.666 108.942 114.119 107.871C110.981 101.582 104.217 98.8815 97.5874 101.246C93.5935 102.672 90.3939 105.225 87.7911 108.539C87.6119 108.758 87.455 109.009 87.3134 109.269C86.5539 110.697 86.6296 111.867 87.5294 112.655C88.5043 113.524 89.7246 113.398 91.0486 112.318C92.7893 110.91 94.5009 109.447 96.3307 108.168C97.3853 107.436 98.6345 106.929 99.8561 106.545C103.111 105.528 105.787 106.553 108.072 108.949C105.868 110.223 103.68 111.287 101.729 112.679C98.8351 114.745 96.8408 117.599 95.8156 121.041C95.4452 122.265 95.3042 123.615 95.4078 124.88C95.6723 127.996 97.91 130.188 101.021 130.598C104.171 131.009 106.878 130.05 109.249 127.996C112.24 125.389 114.109 122.11 114.916 118.232C115.075 117.467 115.25 116.71 115.472 115.722C119.439 117.51 120.371 121.149 121.918 124.569C121.242 124.972 120.723 125.304 120.174 125.618C115.289 128.459 112.096 132.601 110.919 138.139C110.555 139.862 110.503 141.775 110.847 143.509C111.797 148.425 116.568 150.375 120.868 147.769C122.971 146.5 124.485 144.671 125.734 142.6C127.623 139.43 128.663 135.997 128.793 132.303C128.808 131.658 128.847 131.005 128.877 130.368C133.837 130.044 138.712 135.26 138.786 140.689C136.456 142.013 134.049 143.077 132 144.613C128.174 147.477 126.107 151.52 125.489 156.215C125.137 158.935 125.795 161.473 128.2 163.142C130.589 164.803 133.156 164.5 135.653 163.307C139.164 161.638 141.516 158.82 142.91 155.282C143.919 152.743 144.598 150.082 145.512 147.133C146.331 147.779 147.19 148.386 147.945 149.076C149.185 150.188 150.301 151.451 151.606 152.48C152.759 153.386 154.187 153.314 155.039 152.591C155.955 151.822 156.146 150.381 155.478 148.987C155.252 148.527 154.995 148.089 154.697 147.689C152.544 144.869 150.039 142.512 146.537 141.472C145.511 141.17 144.942 140.721 144.835 139.572C144.106 132.36 137.511 124.441 128.784 124.136C128.512 124.126 128.228 123.991 128.135 123.98L128.12 123.972ZM109.659 115.026C109.412 118.278 108.472 120.836 106.515 122.859C105.65 123.753 104.47 124.496 103.287 124.881C101.553 125.44 100.681 124.528 101.247 122.836C102.571 118.883 105.363 116.386 109.659 115.026ZM116.756 143.048C114.926 139.236 118.663 132.025 122.809 131.157C123.262 136.218 120.445 141.853 116.756 143.048ZM138.847 147.161C138.517 153.003 134.898 158.18 131.38 158.043C130.632 154.029 133.946 149.122 138.847 147.161Z" fill="#F6DE64" fill-opacity="0.4"/>
<path d="M102.188 145.518C94.62 137.307 79.8399 138.492 72.9561 144.304C62.7228 152.943 62.766 169.885 71.3683 179.256C73.5227 181.6 75.4674 184.147 78.4733 185.55C84.6241 188.392 91.0379 189.297 97.5096 187.223C105.297 184.737 109.831 179.049 111.272 171.099C112.691 163.335 110.536 156.335 105.918 150.03C104.773 148.455 103.437 147.012 102.196 145.503L102.188 145.518ZM98.6794 150.418C99.2204 150.991 99.8003 151.565 100.309 152.16C104.675 157.217 106.661 163.036 105.368 169.66C104.351 174.87 101.565 178.956 96.4996 180.926C90.6201 183.225 81.518 182.081 76.4372 176.297C70.8987 170.005 69.3821 162.6 72.4451 154.624C73.9717 150.663 76.8305 147.607 80.8495 146.353C87.4214 144.314 93.6196 145.141 98.6724 150.395L98.6794 150.418Z" fill="#89A3FC" fill-opacity="0.4"/>
<path d="M153.706 114.915C152.227 116.426 151.928 118.065 152.812 119.281C153.697 120.497 155.378 120.8 157.123 119.93C158.218 119.379 159.225 118.661 160.262 117.998C164.123 115.469 168.03 112.966 171.824 110.342C172.783 109.676 173.576 108.623 174.173 107.602C174.819 106.528 174.565 105.32 173.71 104.377C172.907 103.484 171.813 103.342 170.704 103.629C170.154 103.764 169.6 104.016 169.129 104.334C164.163 107.686 159.212 111.046 154.254 114.422C154.022 114.592 153.827 114.803 153.706 114.915Z" fill="#89A3FC" fill-opacity="0.4"/>
<path d="M158.449 95.751C159.203 94.9145 159.771 93.8377 160.166 92.7856C160.579 91.7031 160.273 90.6253 159.326 89.8509C158.395 89.0848 157.331 88.9601 156.275 89.513C155.592 89.8927 154.905 90.3502 154.386 90.9384C150.495 95.4121 146.627 99.9177 142.782 104.416C142.408 104.846 142.125 105.365 141.842 105.884C140.992 107.441 141.062 108.767 142.06 109.668C143.155 110.643 144.608 110.564 145.99 109.377C146.657 108.81 147.24 108.177 147.839 107.553C149.456 105.899 156.454 97.951 158.433 95.7426L158.449 95.751Z" fill="#89A3FC" fill-opacity="0.4"/>
<path d="M141.449 78.7075C137.415 83.7364 134.226 89.2869 131.657 95.1949C131.385 95.8389 131.241 96.6121 131.303 97.2995C131.489 99.3227 133.731 100.269 135.357 99.0366C135.861 98.6581 136.339 98.1462 136.654 97.6051C139.688 92.446 142.683 87.2854 145.671 82.1012C145.98 81.5365 146.235 80.923 146.428 80.3151C146.779 79.1991 146.724 78.0994 145.696 77.3999C144.616 76.6517 143.487 76.8282 142.493 77.6325C142.1 77.9528 141.781 78.3538 141.426 78.7144L141.449 78.7075Z" fill="#89A3FC" fill-opacity="0.4"/>
<path d="M95.8909 173.859C97.4301 172.42 98.2297 170.519 98.5078 168.373C99.3823 161.678 96.3516 155.884 90.625 153.392C85.4669 151.132 80.5156 152.966 78.0848 158.039C75.5096 163.448 76.6519 170.193 80.4377 174.241C84.4043 178.466 92.438 178.076 95.8826 173.874L95.8909 173.859ZM90.375 170.472C90.1749 170.62 89.7068 171.078 89.1496 171.408C87.2224 172.575 86.2925 172.424 84.882 170.644C82.4645 167.581 82.1484 164.159 83.5126 160.605C84.3606 158.433 85.924 157.86 88.0608 158.709C92.3804 160.432 93.8367 166.893 90.3667 170.487L90.375 170.472Z" fill="#89A3FC" fill-opacity="0.4"/>
</g>
<defs>
<clipPath id="clip0_2611_881">
<rect width="150.821" height="237.005" fill="white" transform="matrix(0.87778 0.479064 0.479064 -0.87778 0 208.039)"/>
</clipPath>
</defs>
</svg>
