<svg width="43" height="43" viewBox="0 0 43 43" fill="none" xmlns="http://www.w3.org/2000/svg">
<circle cx="21.4473" cy="21.4473" r="21.4473" fill="#D6D0C2"/>
<path d="M21.4931 10.7398C21.8597 10.7398 22.2208 10.7642 22.5567 10.8218C22.8876 10.8657 23.214 10.9398 23.5321 11.0435C23.8493 11.1414 24.1637 11.2676 24.4753 11.4221C24.779 11.5704 25.091 11.7518 25.4031 11.949C25.9307 12.2945 26.4499 12.5737 26.9789 12.7969C28.02 13.2265 29.1213 13.4816 30.2409 13.5526C30.8072 13.5958 31.3936 13.6179 32 13.6188V19.377C32 20.4701 31.8643 21.5094 31.5928 22.495C31.3319 23.4684 30.9614 24.4072 30.4886 25.292C30.0179 26.1757 29.4609 27.0078 28.8261 27.7752C28.182 28.5605 27.4843 29.2975 26.7382 29.9806C25.9815 30.6649 25.1857 31.3018 24.3549 31.888C23.5227 32.483 22.6859 33.0315 21.8443 33.5334L21.5085 33.7393L21.1726 33.5334C20.3094 33.0195 19.4663 32.4706 18.6453 31.888C17.81 31.3081 17.0138 30.6709 16.262 29.9806C15.5164 29.2975 14.8191 28.5605 14.1755 27.7752C13.5429 27.0042 12.9834 26.1727 12.5046 25.292C12.0403 24.403 11.6702 23.4653 11.4004 22.495C11.129 21.4794 10.9943 20.4303 11.0002 19.377V13.6188C11.6066 13.6179 12.1934 13.5958 12.7607 13.5526C13.32 13.5135 13.8758 13.4312 14.4232 13.3065C14.9592 13.1827 15.4951 13.0185 16.0227 12.7969C16.5701 12.5693 17.0949 12.2882 17.5901 11.9576C18.2058 11.5459 18.83 11.2422 19.4457 11.0421C20.1089 10.8332 20.7996 10.7312 21.4931 10.7398ZM30.5922 15.0339C29.5329 14.9806 28.4835 14.7984 27.4659 14.4912C26.454 14.1799 25.49 13.7229 24.6026 13.1337C24.1422 12.8236 23.6426 12.58 23.1178 12.4096C22.5933 12.2469 22.0479 12.1663 21.5001 12.1707C20.9482 12.1672 20.3988 12.2477 19.8698 12.4096C19.3444 12.5749 18.8455 12.8189 18.3892 13.1337C17.4999 13.7255 16.5335 14.1845 15.5189 14.497C14.5272 14.7935 13.4874 14.9749 12.3996 15.0411V19.3842C12.3996 20.3372 12.52 21.2527 12.7607 22.1308C13.0061 23.0027 13.344 23.8441 13.7683 24.6399C14.1978 25.444 14.7041 26.202 15.2796 26.9029C15.8632 27.6097 16.4859 28.2676 17.1577 28.8923C17.8294 29.5171 18.5333 30.0958 19.2694 30.6284C20.013 31.162 20.7565 31.65 21.5001 32.0924C22.2613 31.6374 23.0032 31.1489 23.7238 30.6284C24.4656 30.0972 25.1733 29.5173 25.8425 28.8923C26.5142 28.2676 27.1384 27.6097 27.7219 26.9029C28.2975 26.202 28.8038 25.444 29.2333 24.6399C29.6555 23.845 29.9883 23.0032 30.2255 22.1308C30.4738 21.2378 30.5973 20.313 30.5922 19.3842V15.0339Z" fill="#2E2E2E"/>
<path fill-rule="evenodd" clip-rule="evenodd" d="M26.7098 17.5188L26.0941 16.9746L25.5259 17.025L19.4244 24.4357L17.3463 21.3839L16.7865 21.286L16.1386 21.7625L16.042 22.3383L18.7135 26.2625L19.0172 26.4353L19.6567 26.4756L19.9842 26.3287L26.7504 18.1018L26.7098 17.5188Z" fill="#2E2E2E"/>
</svg>
