<svg width="21" height="24" viewBox="0 0 21 24" fill="none" xmlns="http://www.w3.org/2000/svg">
<path d="M10.4931 0.739756C10.8597 0.739756 11.2208 0.764228 11.5567 0.821809C11.8876 0.865656 12.214 0.939848 12.5321 1.0435C12.8493 1.14139 13.1637 1.26759 13.4753 1.4221C13.779 1.57037 14.091 1.75175 14.4031 1.94897C14.9307 2.29446 15.4499 2.57373 15.9789 2.79686C17.02 3.22647 18.1213 3.48163 19.2409 3.55261C19.8072 3.5958 20.3936 3.61787 21 3.61883V9.37698C21 10.4701 20.8643 11.5094 20.5928 12.495C20.3319 13.4684 19.9614 14.4072 19.4886 15.292C19.0179 16.1757 18.4609 17.0078 17.8261 17.7752C17.182 18.5605 16.4843 19.2975 15.7382 19.9806C14.9815 20.6649 14.1857 21.3018 13.3549 21.888C12.5227 22.483 11.6859 23.0315 10.8443 23.5334L10.5085 23.7393L10.1726 23.5334C9.30939 23.0195 8.46627 22.4706 7.64526 21.888C6.81003 21.3081 6.01381 20.6709 5.26203 19.9806C4.51641 19.2975 3.81912 18.5605 3.17548 17.7752C2.54288 17.0042 1.98336 16.1727 1.50457 15.292C1.04032 14.403 0.670154 13.4653 0.400418 12.495C0.129016 11.4794 -0.00565153 10.4303 0.000181667 9.37698V3.61883C0.606601 3.61787 1.19343 3.5958 1.76066 3.55261C2.32005 3.5135 2.87578 3.43121 3.42318 3.30645C3.95916 3.18265 4.49514 3.01854 5.02273 2.79686C5.57006 2.56927 6.09491 2.28824 6.59009 1.95761C7.20584 1.5459 7.82998 1.24215 8.44573 1.04206C9.10892 0.833167 9.79956 0.73119 10.4931 0.739756ZM19.5922 5.0339C18.5329 4.98057 17.4835 4.7984 16.4659 4.49119C15.454 4.17989 14.49 3.72287 13.6026 3.13371C13.1422 2.82364 12.6426 2.58001 12.1178 2.40962C11.5933 2.24689 11.0479 2.16634 10.5001 2.17066C9.94817 2.1672 9.39878 2.24772 8.86976 2.40962C8.34435 2.57493 7.84547 2.81891 7.38916 3.13371C6.49992 3.72549 5.53355 4.18448 4.51894 4.49695C3.52721 4.7935 2.48743 4.97488 1.39961 5.0411V9.38418C1.39961 10.3372 1.51996 11.2527 1.76066 12.1308C2.00609 13.0027 2.34399 13.8441 2.76825 14.6399C3.19777 15.444 3.70406 16.202 4.27963 16.9029C4.86319 17.6097 5.48594 18.2676 6.15767 18.8923C6.82939 19.5171 7.5333 20.0958 8.2694 20.6284C9.01297 21.162 9.75653 21.65 10.5001 22.0924C11.2613 21.6374 12.0032 21.1489 12.7238 20.6284C13.4656 20.0972 14.1733 19.5173 14.8425 18.8923C15.5142 18.2676 16.1384 17.6097 16.7219 16.9029C17.2975 16.202 17.8038 15.444 18.2333 14.6399C18.6555 13.845 18.9883 13.0032 19.2255 12.1308C19.4738 11.2378 19.5973 10.313 19.5922 9.38418V5.0339Z" fill="#2E2E2E"/>
<path fill-rule="evenodd" clip-rule="evenodd" d="M15.7098 7.51876L15.0941 6.97461L14.5259 7.02499L8.42441 14.4357L6.34626 11.3839L5.78649 11.286L5.13855 11.7625L5.04199 12.3383L7.7135 16.2625L8.01718 16.4353L8.65672 16.4756L8.98418 16.3287L15.7504 8.10177L15.7098 7.51876Z" fill="#2E2E2E"/>
</svg>
