<svg width="127" height="162" viewBox="0 0 127 162" fill="none" xmlns="http://www.w3.org/2000/svg">
<g clip-path="url(#clip0_2612_1181)">
<path d="M45.2428 133.177C43.8919 131.609 41.4154 131.737 40.2254 133.465C37.7811 137.019 35.4975 140.412 32.9888 143.582C28.5826 149.152 23.4365 154.05 17.197 157.604C13.048 159.941 8.67391 161.51 3.81736 160.997C-2.22921 160.325 -6.63548 157.156 -9.56228 151.938C-11.9101 147.776 -12.9715 143.262 -13.1966 138.556C-13.7113 127.031 -12.6177 115.666 -9.53012 104.525C-9.14417 103.084 -10.0769 101.643 -11.5564 101.419C-14.258 101.003 -16.8953 100.619 -19.4362 99.9467C-22.4273 99.1463 -25.4506 98.0578 -28.1201 96.5212C-34.3918 92.9036 -37.2864 85.3482 -35.4532 78.3372C-33.8129 71.9664 -30.3393 66.7801 -25.0968 62.7463C-16.6059 56.2154 -6.98927 52.5338 3.65654 51.5734C3.94601 51.5734 4.20331 51.5094 4.49277 51.5094C7.45173 51.2853 9.83176 49.0123 10.1856 46.067C10.5715 42.8336 10.9896 39.6322 11.5685 36.4948C13.434 26.6985 18.0975 18.2147 24.5944 10.7555C28.5182 6.24149 33.2461 2.848 39.0676 1.05521C48.2017 -1.73002 56.8213 1.05521 62.5141 8.73858C66.0198 13.4447 67.8209 18.887 68.9466 24.5535C69.5899 27.7549 70.1366 30.9884 70.6834 34.2858C71.1015 36.7509 73.771 38.1595 76.0224 37.039C77.5983 36.2707 79.1422 35.5664 80.7824 35.0541C85.9606 33.3574 91.2674 31.9168 96.5743 30.6682C101.527 29.4837 106.448 30.4761 111.176 32.1089C123.848 36.5268 129.927 49.2684 125.617 62.2021C123.719 67.9006 120.31 72.6387 116.226 76.9286C113.749 79.5537 111.176 82.0828 108.474 84.4519C106.898 85.8285 106.705 87.013 107.413 88.9338C110.79 97.9298 113.234 107.214 114.36 116.786C115.711 128.375 113.17 138.844 104.518 147.199C95.4164 156.003 84.9314 158.692 72.8383 153.954C61.71 149.568 52.9618 142.077 45.2749 133.177H45.2428ZM-1.55379 130.616C-1.52163 134.97 -0.846218 139.228 0.150822 143.326C1.373 148.352 4.58926 149.665 9.285 147.52C10.7323 146.847 12.244 146.111 13.3696 145.022C17.39 141.149 21.5389 137.339 25.1412 133.081C28.5504 129.015 31.2842 124.373 34.4361 120.051C35.5297 118.547 36.7197 117.074 38.1348 115.89C40.2254 114.161 43.1522 113.873 44.8568 115.249C47.4298 117.362 49.8742 119.603 52.1899 121.972C55.4705 125.302 58.4616 128.887 61.8387 132.121C66.5022 136.603 71.8412 140.124 77.9521 142.429C84.5776 144.926 90.2704 143.326 95.3521 138.716C100.723 133.85 102.46 127.639 102.074 120.628C101.495 109.839 98.4719 99.6265 94.3229 89.7662C92.3288 85.0601 93.165 81.6666 96.8316 78.4012C100.723 74.9117 104.615 71.4221 108.024 67.5164C110.436 64.7632 112.656 61.5298 113.91 58.1363C116.579 51.0932 112.559 44.4983 105.162 43.1217C102.846 42.7055 100.369 42.6415 98.0216 42.8656C91.2353 43.4418 85.1565 46.2271 79.0135 48.9162C75.154 50.613 71.1658 52.0536 67.1777 53.3982C64.8941 54.1665 62.8679 53.1741 61.6135 51.2213C60.7773 49.9087 60.134 48.34 59.8446 46.8353C58.944 42.0012 58.4938 37.071 57.4646 32.2689C56.4032 27.3708 55.3418 22.3125 53.3156 17.7666C50.9034 12.3882 46.0468 11.0756 40.8687 13.9249C38.2313 15.3655 35.7548 17.4144 33.7607 19.6554C28.9363 25.1618 25.3985 31.4686 24.112 38.7038C23.1792 43.922 22.7933 49.2364 22.3752 54.5507C22.0214 59.0967 20.4776 60.9855 15.9105 61.6258C12.3404 62.138 8.73824 62.5542 5.16819 63.1305C-2.90462 64.379 -10.495 66.9402 -16.831 72.1264C-19.2111 74.0793 -21.2695 76.7685 -22.6846 79.5217C-24.743 83.5234 -23.6495 85.8605 -19.3719 87.173C-16.0591 88.1975 -12.5856 88.6137 -9.17633 89.286C-6.57116 89.7982 -3.8695 90.0863 -1.32866 90.8867C1.46949 91.7511 2.91681 93.832 2.65951 96.201C2.24139 99.8826 1.56598 103.532 1.14787 107.214C0.247311 115.025 -1.48947 122.773 -1.42514 130.616H-1.55379Z" fill="#EBACD2" fill-opacity="0.4"/>
<path d="M45.307 104.429C42.1551 104.396 39.1961 103.436 36.3658 102.059C34.7898 101.291 33.5033 99.6584 32.5063 98.1537C31.2198 96.2009 31.4449 94.0239 32.9566 92.1991C34.4682 90.3743 36.6874 89.606 38.7137 90.7265C50.0027 96.8412 54.0552 86.7567 54.2803 86.4366C55.792 84.0676 58.2042 84.4517 60.2626 85.6362C63.4467 87.365 61.8064 95.2085 60.0053 97.4174C56.8212 101.291 52.2541 104.557 45.2748 104.461L45.307 104.429Z" fill="#EBACD2" fill-opacity="0.4"/>
<path d="M70.426 73.9835C70.5225 77.505 67.6279 80.5784 64.3151 80.5464C61.0989 80.5144 58.4294 77.6651 58.365 74.2396C58.3007 70.526 60.9381 67.5487 64.2508 67.4846C67.5635 67.4526 70.3295 70.3659 70.426 74.0155V73.9835Z" fill="#EBACD2" fill-opacity="0.4"/>
<path d="M26.2667 73.4075C29.676 73.3115 32.6027 76.2888 32.6027 79.8103C32.6027 83.1718 29.8046 86.0211 26.524 86.0211C23.2756 86.0211 20.5418 83.2359 20.4453 79.8103C20.3488 76.4169 23.0183 73.5036 26.2989 73.4075H26.2667Z" fill="#EBACD2" fill-opacity="0.4"/>
</g>
<defs>
<clipPath id="clip0_2612_1181">
<rect width="163" height="161.063" fill="white" transform="translate(-36 -0.000976562)"/>
</clipPath>
</defs>
</svg>
