<svg width="215" height="284" viewBox="0 0 215 284" fill="none" xmlns="http://www.w3.org/2000/svg">
<path d="M35.9688 218.008C33.8511 214.917 29.6435 214.037 26.4361 215.979C13.0518 224.152 0.624523 233.133 -10.8743 243.396C-16.5577 248.494 -21.796 254.096 -27.349 259.458C-29.7155 261.708 -32.0693 264.049 -34.8285 265.836C-39.7397 269.045 -45.6607 268.681 -49.3966 265.436C-53.1452 262.099 -54.4606 256.315 -52.0405 251.053C-50.817 248.349 -48.9496 245.887 -47.0568 243.608C-31.8461 224.854 -12.6434 210.86 7.29221 197.751C8.6257 196.864 9.95918 195.977 11.3721 194.985C13.5639 193.511 13.9338 190.408 12.2057 188.437C8.42196 184.166 4.74316 179.973 0.854537 175.622C-1.20108 173.321 -4.90146 173.734 -6.36185 176.423C-9.53529 182.352 -12.4433 187.822 -15.3116 193.239C-15.9886 194.459 -16.416 195.785 -17.0532 196.953C-20.0789 202.251 -23.8268 204.361 -28.257 203.23C-33.226 201.938 -37.0067 197.009 -35.8869 191.173C-34.6989 184.812 -32.3663 178.575 -30.0083 172.523C-28.1699 167.81 -25.8849 163.271 -23.5458 158.442C-22.1108 155.569 -22.8187 152.144 -25.2303 149.985C-30.8008 145.019 -36.1344 140.068 -41.8256 135.587C-56.2634 124.228 -71.0191 113.288 -85.5364 102.034C-90.0607 98.5207 -94.3594 94.6012 -98.434 90.6042C-102.613 86.5275 -104.669 81.5026 -102.523 75.6203C-100.283 69.3965 -95.1503 66.7682 -89.0036 66.7247C-82.159 66.6326 -75.2636 66.9091 -68.5556 67.8688C-41.711 71.7998 -14.9203 76.0199 11.8576 80.1478C21.2615 81.5836 20.907 81.3973 26.1831 73.3489C39.003 53.6074 51.9803 33.9851 65.2198 14.5618C68.0693 10.3677 72.1141 6.66741 76.3259 3.83647C85.1327 -2.11267 95.1788 -0.107445 100.4 9.13301C103.65 14.9806 106 21.7966 106.812 28.3538C109.081 46.8271 110.284 65.3995 111.869 84.0136C111.967 85.4088 112.106 86.7517 112.165 88.1994C112.374 91.4111 114.809 94.083 117.979 94.5881C119.413 94.7674 120.859 95.0389 122.293 95.2182C145.613 98.4578 168.974 101.645 192.267 105.029C196.818 105.674 201.512 106.674 205.715 108.541C215.119 112.7 217.258 125.462 209.513 132.299C205.878 135.568 201.037 137.921 196.343 139.644C180.166 145.617 163.78 151.101 147.525 156.849C138.256 160.138 129.104 163.927 119.836 167.216C115.407 168.809 113.342 171.205 113.279 176.191C112.953 206.478 108.128 236.16 101.778 265.676C100.647 271.09 99.7512 276.848 94.8909 280.425C90.4534 283.663 84.3576 284.075 79.6855 281.193C75.2106 278.378 73.2595 273.432 70.4231 269.219C58.9601 252.193 47.497 235.166 35.9021 218.205L35.9688 218.008ZM33.5415 174.245C35.807 176.705 39.4233 177.384 42.4178 175.941C57.0213 168.775 71.2689 161.752 85.4513 154.597C86.7705 153.947 88.0052 151.664 88.0257 150.112C88.0831 140.665 87.9164 131.296 87.7513 121.598C87.6888 118.084 85.0704 115.109 81.5717 114.602C66.5376 112.528 52.0423 110.616 37.5216 108.519C33.7337 107.958 31.9474 109.987 30.3423 112.649C25.7258 120.372 21.0569 128.055 16.4929 135.818C15.0071 138.323 13.6134 140.815 12.2595 143.254C10.6799 146.1 11.1112 149.563 13.2717 151.944C20.3558 159.709 26.9948 166.97 33.5288 174.153L33.5415 174.245ZM86.7891 85.3822C85.7521 70.7317 84.7773 56.8711 83.7755 43.155C83.5174 39.2457 78.4704 37.7298 76.139 40.9137C67.0137 53.0583 59.2396 66.1448 50.976 79.768C49.4107 82.3774 51.0135 85.8207 54.0257 86.2065C63.3517 87.4181 72.3486 88.6278 81.9639 89.8938C84.6471 90.2776 86.9739 88.0806 86.7891 85.3822ZM77.1143 231.626C78.6183 233.675 81.8466 232.904 82.2531 230.406C84.5131 217.183 86.2994 203.93 86.8791 189.762C87.0152 185.987 82.9997 183.438 79.5825 185.22C72.3649 189.074 65.4907 192.692 58.4846 196.375C55.8589 197.768 55.0662 201.21 56.8055 203.602C63.7754 213.26 70.4449 222.443 77.0619 231.587L77.1143 231.626ZM3.31248 103.296C-13.653 100.5 -30.04 97.814 -46.3744 95.1672C-48.9654 94.7707 -50.3892 98.0651 -48.2907 99.6561L-10.5192 128.294C-9.31259 129.209 -7.62615 128.837 -6.81726 127.553C-2.98267 120.969 0.931373 114.282 5.15053 107.082C6.06588 105.548 5.14049 103.609 3.36494 103.335L3.31248 103.296ZM113.378 124.193C113.438 128.364 113.511 132.298 113.585 136.233C113.649 139.418 116.824 141.66 119.869 140.585C131.642 136.39 143.099 132.285 154.476 128.285C156.717 127.508 156.364 124.269 153.97 123.94C142.447 122.465 130.872 120.951 118.586 119.394C115.719 119.035 113.208 121.257 113.273 124.113L113.378 124.193Z" fill="#F6DE64" fill-opacity="0.4"/>
</svg>
