<svg width="200" height="199" viewBox="0 0 200 199" fill="none" xmlns="http://www.w3.org/2000/svg">
<g clip-path="url(#clip0_2612_1172)">
<path d="M113.042 150.507C111.33 149.331 108.971 150.094 108.269 152.081C106.83 156.165 105.504 160.051 103.902 163.778C101.09 170.328 97.3885 176.415 92.2819 181.478C88.8795 184.819 85.0603 187.472 80.2352 188.226C74.2188 189.133 69.1394 187.189 64.958 182.873C61.6099 179.434 59.4135 175.321 57.9751 170.806C54.4882 159.739 52.5965 148.412 52.6896 136.789C52.6887 135.29 51.4139 134.13 49.9263 134.294C47.2081 134.586 44.5603 134.893 41.931 134.895C38.8335 134.889 35.6301 134.611 32.6523 133.806C25.6543 131.908 20.8977 125.312 20.8502 118.026C20.7823 111.412 22.793 105.476 26.8117 100.204C33.3212 91.6676 41.6574 85.6096 51.6939 81.9306C51.9736 81.856 52.2056 81.7274 52.4852 81.6527C55.286 80.6718 56.9958 77.8491 56.5736 74.8956C56.1077 71.6539 55.6812 68.435 55.4267 65.2368C54.6877 55.2357 56.9927 45.7885 61.3347 36.864C63.9548 31.4654 67.6425 26.9482 72.8019 23.7046C80.9045 18.6422 89.955 19.1257 97.4483 25.1241C102.056 28.7933 105.208 33.6176 107.766 38.8339C109.218 41.7791 110.585 44.7803 111.969 47.8437C113.012 50.1314 115.957 50.8118 117.841 49.1423C119.164 47.9892 120.473 46.9066 121.925 45.9857C126.488 43.0013 131.242 40.2327 136.045 37.6506C140.523 35.2221 145.535 34.9174 150.527 35.2847C163.916 36.3097 173.094 47.1241 172.286 60.8045C171.93 66.8316 169.866 72.3153 167.032 77.5377C165.32 80.7275 163.49 83.8489 161.495 86.8479C160.329 88.5921 160.45 89.793 161.632 91.4772C167.228 99.3484 171.998 107.74 175.569 116.752C179.881 127.666 180.141 138.494 173.95 148.846C167.44 159.749 158.007 165.066 145.094 163.581C133.204 162.189 122.809 157.165 113.073 150.499L113.042 150.507ZM67.1645 160.087C68.325 164.31 70.0821 168.274 72.1084 171.999C74.5931 176.568 78.0411 177.014 82.0215 173.719C83.2455 172.692 84.515 171.587 85.3202 170.238C88.1996 165.437 91.22 160.665 93.5958 155.598C95.835 150.768 97.2721 145.551 99.1962 140.539C99.8624 138.794 100.63 137.056 101.69 135.54C103.262 133.321 106.015 132.286 108.019 133.184C111.053 134.574 113.996 136.121 116.848 137.826C120.881 140.216 124.701 142.929 128.803 145.2C134.471 148.353 140.543 150.398 147.045 151.062C154.094 151.78 159.179 148.756 162.893 142.965C166.82 136.851 166.887 130.368 164.695 123.654C161.337 113.319 155.767 104.174 149.201 95.6622C146.053 91.6031 145.981 88.0897 148.676 83.9707C151.531 79.5759 154.386 75.1811 156.666 70.5063C158.283 67.2086 159.588 63.4941 159.92 59.8728C160.672 52.3399 155.077 46.9679 147.573 47.538C145.227 47.7308 142.818 48.3073 140.608 49.1306C134.2 51.4409 129.05 55.7153 123.812 59.913C120.523 62.5573 117.044 64.9859 113.539 67.3211C111.532 68.6568 109.317 68.2149 107.599 66.6407C106.45 65.5808 105.422 64.2222 104.752 62.8347C102.628 58.3692 100.914 53.6942 98.6737 49.293C96.3776 44.8068 94.04 40.165 90.903 36.2698C87.1772 31.6653 82.1445 31.6423 77.8806 35.7467C75.7062 37.8269 73.845 40.4567 72.4997 43.1488C69.267 49.7441 67.4848 56.7855 68.1187 64.1483C68.5713 69.46 69.577 74.724 70.5516 79.9962C71.3891 84.5052 70.3875 86.7389 66.141 88.539C62.8246 89.9576 59.4522 91.2911 56.1525 92.7718C48.6766 96.0672 42.0075 100.514 37.2312 107.188C35.4383 109.699 34.1471 112.844 33.494 115.884C32.5434 120.304 34.2062 122.293 38.6796 122.465C42.146 122.606 45.61 122.115 49.0783 121.889C51.7282 121.715 54.4132 121.298 57.0757 121.421C60.0034 121.539 61.9416 123.188 62.3075 125.556C62.8586 129.242 63.1528 132.963 63.7039 136.649C64.8602 144.472 65.1919 152.449 67.2888 160.054L67.1645 160.087Z" fill="#EBACD2" fill-opacity="0.4"/>
<path d="M105.647 122.553C102.593 123.335 99.485 123.165 96.3934 122.557C94.6714 122.217 93.0049 120.962 91.6512 119.757C89.9017 118.191 89.5545 116.017 90.5416 113.854C91.5287 111.691 93.4735 110.372 95.7219 110.938C108.215 113.969 109.515 103.124 109.649 102.755C110.495 100.062 112.925 99.8137 115.221 100.434C118.746 101.293 119.196 109.338 118.029 111.949C115.957 116.535 112.392 120.886 105.624 122.593L105.647 122.553Z" fill="#EBACD2" fill-opacity="0.4"/>
<path d="M122.018 86.488C123.025 89.8854 121.025 93.6186 117.816 94.4418C114.7 95.2402 111.382 93.1599 110.431 89.8476C109.406 86.2553 111.182 82.6818 114.366 81.7652C117.558 80.8797 120.986 82.9974 122.026 86.5191L122.018 86.488Z" fill="#EBACD2" fill-opacity="0.4"/>
<path d="M79.2032 97.3175C82.4722 96.3449 86.0723 98.4834 86.9858 101.906C87.8579 105.172 85.8935 108.663 82.7239 109.509C79.5854 110.347 76.2215 108.345 75.2397 105.041C74.2662 101.768 76.0896 98.2486 79.2343 97.3092L79.2032 97.3175Z" fill="#EBACD2" fill-opacity="0.4"/>
</g>
<defs>
<clipPath id="clip0_2612_1172">
<rect width="163" height="162" fill="white" transform="translate(0 42.0391) rotate(-14.9462)"/>
</clipPath>
</defs>
</svg>
