<svg width="116" height="113" viewBox="0 0 116 113" fill="none" xmlns="http://www.w3.org/2000/svg">
<path d="M83.2645 51.042L44.4205 32.3373C43.3224 31.8083 42.102 31.5584 40.8753 31.6115C39.6487 31.6645 38.4565 32.0188 37.4121 32.6405C36.3677 33.2622 35.5058 34.1308 34.9083 35.1636C34.3108 36.1964 33.9977 37.3592 33.9985 38.5414V73.8712C33.9977 75.0534 34.3108 76.2162 34.9083 77.249C35.5058 78.2818 36.3677 79.1504 37.4121 79.7721C38.4565 80.3938 39.6487 80.748 40.8753 80.8011C42.102 80.8542 43.3224 80.6043 44.4205 80.0753L83.2645 61.3706C84.2598 60.8903 85.0967 60.1529 85.6815 59.2409C86.2664 58.3288 86.5761 57.2781 86.5761 56.2063C86.5761 55.1344 86.2664 54.0837 85.6815 53.1717C85.0967 52.2596 84.2598 51.5223 83.2645 51.042Z" stroke="white" stroke-width="8" stroke-linecap="round" stroke-linejoin="round"/>
<path d="M58 108.195C87.8234 108.195 112 84.9184 112 56.2054C112 27.4923 87.8234 4.21582 58 4.21582C28.1766 4.21582 4 27.4923 4 56.2054C4 84.9184 28.1766 108.195 58 108.195Z" stroke="white" stroke-width="8"/>
</svg>
